<?xml version="1.0" encoding="utf-8"?>
<!-- Generator: Adobe Illustrator 22.0.1, SVG Export Plug-In . SVG Version: 6.00 Build 0)  -->
<svg version="1.1" id="Layer_1" xmlns="http://www.w3.org/2000/svg" xmlns:xlink="http://www.w3.org/1999/xlink" x="0px" y="0px"
	 width="250.1px" height="250.09px" viewBox="0 0 250.1 250.09" enable-background="new 0 0 250.1 250.09" xml:space="preserve">
<g>
	<path fill="#002F65" d="M14.84,104.47c-0.44-0.2-0.64-0.43-0.58-0.65c0.06-0.22,0.24-0.35,1.04-0.51l17.26-3.3L19.06,88.5
		c-0.38-0.33-0.55-0.53-0.49-0.77c0.07-0.24,0.38-0.33,0.97-0.26l17.4,2.02c1.77,0.21,2.63,0.15,3.09-0.6
		c0.45-0.72,0.63-1.26,0.72-1.61c0.06-0.24,0.14-0.43,0.31-0.38c0.22,0.06,0.21,0.4,0.11,0.78c-0.18,0.67-1.26,4.39-1.63,5.46
		c-0.22,0.61-0.35,0.75-0.51,0.7c-0.13-0.04-0.18-0.17-0.21-0.37c-0.01-0.18-0.34-0.35-1.13-0.45l-12.36-1.57l-0.03,0.11l10.72,9.2
		c1.11,0.97,1.31,1.16,1.25,1.41c-0.07,0.25-0.68,0.37-1.61,0.58c-1.42,0.32-6.14,1.35-6.98,1.47c-0.63,0.09-4.48,0.8-6.77,1.21
		l-0.03,0.11l10.41,4.3c0.47,0.18,0.82,0.31,1.25,0.42c0.52,0.14,0.86-0.15,1.08-0.58c0.24-0.46,0.37-0.83,0.44-1.1
		c0.06-0.22,0.16-0.39,0.3-0.36c0.24,0.07,0.23,0.32,0.12,0.73c-0.3,1.14-0.71,2.34-0.84,2.82c-0.14,0.52-0.41,1.84-0.64,2.7
		c-0.07,0.27-0.18,0.47-0.43,0.41c-0.14-0.04-0.15-0.21-0.07-0.48c0.06-0.22,0.11-0.41,0.14-0.84c0.04-0.8-0.96-1.3-1.84-1.68
		L14.84,104.47z M40.43,74.15c2.31,1.44,4.19,2.62,5.11,3.36c0.65,0.5,0.96,0.9,0.76,1.43c-0.09,0.24-0.22,0.56-0.44,0.91
		c-0.18,0.28-0.16,0.43-0.04,0.5c0.17,0.1,0.34-0.02,0.53-0.33c0.59-0.95,1.46-2.5,1.8-3.04c0.4-0.64,1.41-2.1,2.39-3.67
		c0.16-0.26,0.21-0.49,0.05-0.6c-0.12-0.08-0.27,0-0.43,0.26c-0.22,0.36-0.6,0.85-0.85,1.15c-0.54,0.65-1.08,0.55-1.76,0.22
		c-1.08-0.55-2.96-1.72-5.27-3.16l-4.18-2.61c-3.61-2.26-4.28-2.68-5.01-3.2c-0.8-0.57-1.08-1.01-0.8-1.73
		c0.13-0.31,0.22-0.52,0.37-0.76c0.15-0.24,0.19-0.41,0-0.53c-0.14-0.09-0.31,0.07-0.5,0.38c-0.57,0.9-1.37,2.35-1.75,2.95
		c-0.43,0.69-1.44,2.14-2,3.04c-0.24,0.38-0.31,0.6-0.17,0.69c0.19,0.12,0.32,0,0.47-0.23c0.18-0.28,0.4-0.58,0.63-0.79
		c0.45-0.45,1-0.44,1.84,0.02c0.79,0.43,1.46,0.85,5.07,3.11L40.43,74.15z M73.37,215.22c-1.32,2.38-2.4,4.32-3.09,5.28
		c-0.47,0.67-0.85,1.01-1.39,0.83c-0.25-0.07-0.57-0.19-0.94-0.39c-0.29-0.16-0.43-0.14-0.5-0.02c-0.09,0.17,0.04,0.34,0.36,0.51
		c0.98,0.54,2.57,1.33,3.13,1.64c0.66,0.37,2.17,1.3,3.79,2.19c0.27,0.15,0.5,0.19,0.6,0.01c0.07-0.12-0.01-0.27-0.28-0.42
		c-0.37-0.2-0.88-0.55-1.2-0.79c-0.68-0.51-0.61-1.05-0.32-1.75c0.49-1.11,1.56-3.04,2.88-5.43l2.39-4.31
		c2.07-3.73,2.45-4.41,2.93-5.17c0.53-0.83,0.95-1.14,1.68-0.89c0.32,0.12,0.53,0.2,0.78,0.33c0.24,0.14,0.42,0.17,0.53-0.03
		c0.08-0.15-0.09-0.31-0.4-0.48c-0.93-0.52-2.42-1.25-3.04-1.59c-0.71-0.39-2.21-1.32-3.14-1.84c-0.39-0.22-0.62-0.28-0.7-0.13
		c-0.11,0.2,0.01,0.32,0.26,0.46c0.29,0.16,0.6,0.37,0.83,0.59c0.47,0.42,0.49,0.98,0.07,1.84c-0.39,0.81-0.77,1.5-2.84,5.23
		L73.37,215.22z M185.47,209.52c1.6,2.2,2.9,3.99,3.48,5.03c0.41,0.71,0.55,1.19,0.17,1.61c-0.17,0.19-0.41,0.43-0.75,0.68
		c-0.27,0.2-0.31,0.33-0.23,0.45c0.11,0.16,0.32,0.11,0.62-0.11c0.91-0.66,2.29-1.77,2.81-2.14c0.61-0.45,2.09-1.42,3.59-2.51
		c0.25-0.18,0.38-0.38,0.27-0.54c-0.08-0.12-0.25-0.1-0.5,0.08c-0.34,0.25-0.87,0.57-1.22,0.75c-0.75,0.4-1.2,0.11-1.72-0.45
		c-0.8-0.91-2.1-2.7-3.7-4.91l-2.9-3.99c-2.51-3.45-2.97-4.08-3.45-4.84c-0.53-0.83-0.63-1.34-0.1-1.9c0.24-0.24,0.4-0.4,0.63-0.56
		c0.23-0.16,0.33-0.31,0.2-0.49c-0.1-0.14-0.31-0.05-0.61,0.16c-0.86,0.63-2.15,1.67-2.72,2.08c-0.65,0.48-2.13,1.45-2.99,2.07
		c-0.36,0.26-0.51,0.44-0.41,0.58c0.13,0.18,0.3,0.13,0.53-0.04c0.27-0.2,0.59-0.38,0.88-0.5c0.58-0.25,1.09-0.03,1.69,0.71
		c0.57,0.69,1.03,1.33,3.54,4.78L185.47,209.52z M59.27,38.1c-4.41-0.33-7.89,2.8-10.49,5.15c-1.25,1.12-2.51,2.37-3.15,2.95
		c-0.59,0.53-1.95,1.65-3.05,2.64c-0.31,0.28-0.42,0.46-0.29,0.6c0.13,0.15,0.29,0.07,0.52-0.13c0.29-0.26,0.67-0.56,0.87-0.67
		c0.82-0.47,1.29-0.29,1.96,0.38c0.64,0.63,1.17,1.21,4.02,4.38l3.3,3.66c1.73,1.92,3.21,3.57,3.9,4.53
		c0.46,0.68,0.77,1.23,0.43,1.69c-0.15,0.21-0.36,0.47-0.68,0.76c-0.25,0.22-0.27,0.36-0.18,0.47c0.13,0.14,0.33,0.07,0.6-0.17
		c0.42-0.37,0.92-0.91,1.4-1.34c0.49-0.47,0.95-0.88,1.17-1.09c0.52-0.47,1.31-1.06,2.15-1.72c0.85-0.65,1.76-1.36,2.51-2.03
		c3.86-3.47,4.69-6.9,4.77-8.74c0.1-2.24-0.6-5.23-2.96-7.86C63.83,39.09,61.29,38.24,59.27,38.1z M66.73,51.46
		c-0.27,2.21-1.32,3.9-3.44,5.81c-1.65,1.48-2.85,1.78-3.48,1.63c-0.38-0.08-1.16-0.87-1.66-1.38c-0.38-0.38-1.84-1.96-3.83-4.17
		l-2.36-2.62c-1.48-1.65-3.12-3.46-3.73-4.19c-0.21-0.23-0.24-0.4-0.13-0.64c0.09-0.24,0.81-0.99,1.22-1.37
		c1.63-1.46,4.22-3.35,7.79-3.24c1.66,0.04,4.3,0.76,6.69,3.41C65.74,46.84,67.03,49.11,66.73,51.46z M86.56,42.07
		c0.5,0.59,0.71,0.84,0.97,0.74c0.31-0.12,0.32-0.48,0.41-1.75c0.2-2.85,0.11-13.46,0.1-14.99l0.05-0.02l10.5,11.03
		c0.77,0.82,1.05,1.07,1.31,0.97c0.34-0.13,0.35-0.49,0.29-1.52c-0.23-4.43-0.68-13.82-0.75-17.58c-0.03-1.71-0.14-2.87,0.39-3.34
		c0.25-0.21,0.61-0.39,0.87-0.49c0.23-0.09,0.34-0.22,0.27-0.4c-0.06-0.16-0.26-0.14-0.56-0.03c-0.86,0.33-1.96,0.84-2.14,0.91
		c-0.23,0.09-1.36,0.44-2.75,0.97c-0.39,0.15-0.58,0.29-0.51,0.47c0.06,0.16,0.28,0.16,0.54,0.06c1.02-0.39,1.4-0.12,1.56,0.31
		c0.14,0.37,0.27,0.94,0.32,1.62c0.26,3.42,0.83,11.14,1.03,13.08l-0.08,0.03L87.86,21.06c-0.66-0.7-0.94-1.05-1.23-0.94
		c-0.21,0.08-0.31,0.36-0.29,1.19l0.17,15.61l-0.08,0.03c-1.03-1.28-6.53-8.29-7.64-9.85c-0.77-1.06-1.37-1.85-1.5-2.19
		c-0.11-0.29-0.13-0.49,0.07-0.69c0.14-0.18,0.4-0.28,0.61-0.36c0.26-0.1,0.47-0.21,0.39-0.42c-0.06-0.16-0.28-0.16-0.64-0.02
		c-1.52,0.59-2.64,1.11-2.88,1.2c-0.23,0.09-1.71,0.57-3.07,1.09c-0.37,0.14-0.55,0.27-0.48,0.46c0.08,0.21,0.25,0.17,0.51,0.07
		c0.23-0.09,0.78-0.24,1.14-0.16c0.47,0.12,1,0.64,1.68,1.49L86.56,42.07z M118.5,26.47c0.04,2.58,0.08,4.8-0.04,5.98
		c-0.1,0.82-0.23,1.43-0.79,1.56c-0.25,0.06-0.58,0.12-1.01,0.13c-0.34,0.01-0.45,0.09-0.45,0.24c0,0.19,0.21,0.27,0.57,0.27
		c0.56-0.01,1.29-0.08,1.93-0.09c0.67-0.04,1.29-0.05,1.6-0.05c0.84-0.01,1.71-0.01,2.92,0.03c1.2,0.01,2.75,0.03,4.85,0
		c1.07-0.02,1.32-0.02,1.5-0.76c0.13-0.56,0.32-2.47,0.31-3.12c0-0.28-0.01-0.5-0.23-0.5c-0.2,0-0.25,0.11-0.3,0.43
		c-0.18,1.15-0.5,1.75-1.23,2.1c-0.72,0.35-1.9,0.37-2.63,0.38c-2.86,0.05-3.32-0.36-3.41-2.3c-0.04-0.81-0.06-3.39-0.08-4.35
		l-0.04-2.21c0-0.17,0.03-0.28,0.17-0.28c0.67-0.01,3.45-0.03,3.98,0.01c1.04,0.09,1.44,0.51,1.59,1.07c0.09,0.36,0.1,0.72,0.13,1
		c0,0.14,0.06,0.26,0.26,0.25c0.25,0,0.25-0.31,0.25-0.54c0-0.19,0.06-1.32,0.08-1.88c0.09-1.43,0.19-1.88,0.19-2.05
		c0-0.17-0.09-0.22-0.2-0.22c-0.14,0-0.25,0.15-0.44,0.37c-0.25,0.28-0.67,0.38-1.34,0.44c-0.64,0.07-3.87,0.12-4.48,0.13
		c-0.17,0-0.2-0.11-0.2-0.3l-0.12-7.09c0-0.19,0.05-0.28,0.19-0.28c0.56-0.01,3.5-0.01,3.98,0.04c1.41,0.14,1.69,0.48,1.9,0.98
		c0.14,0.33,0.18,0.8,0.18,1c0,0.25,0.06,0.39,0.26,0.38c0.2,0,0.25-0.17,0.28-0.31c0.05-0.34,0.08-1.57,0.11-1.85
		c0.06-1.29,0.2-1.63,0.19-1.82c0-0.14-0.03-0.25-0.17-0.25c-0.14,0-0.31,0.09-0.44,0.12c-0.22,0.06-0.67,0.12-1.2,0.19
		c-0.53,0.04-6.11,0.13-7.01,0.15c-0.39,0.01-1.04-0.01-1.77-0.02c-0.7,0.01-1.51,0-2.27,0.01c-0.42,0.01-0.62,0.07-0.61,0.26
		c0,0.2,0.17,0.25,0.48,0.24c0.39-0.01,0.87,0.02,1.09,0.07c0.93,0.18,1.16,0.62,1.23,1.58c0.07,0.9,0.09,1.68,0.16,5.94
		L118.5,26.47z M116.58,228.68c-0.08,2.58-0.16,4.8-0.34,5.97c-0.14,0.81-0.3,1.42-0.86,1.52c-0.25,0.05-0.59,0.09-1.01,0.08
		c-0.34-0.01-0.45,0.07-0.46,0.21c-0.01,0.19,0.19,0.28,0.55,0.3c0.56,0.02,1.29-0.02,1.94,0.01c0.67,0,1.29,0.02,1.6,0.03
		c0.84,0.03,1.71,0.08,2.91,0.18c1.2,0.07,2.74,0.17,4.84,0.24c1.06,0.03,1.32,0.04,1.54-0.68c0.16-0.55,0.44-2.45,0.47-3.1
		c0.01-0.28,0.02-0.5-0.2-0.51c-0.2-0.01-0.26,0.1-0.32,0.41c-0.23,1.14-0.59,1.72-1.33,2.03c-0.74,0.31-1.92,0.27-2.64,0.25
		c-2.86-0.09-3.3-0.53-3.29-2.47c0-0.81,0.11-3.39,0.14-4.34l0.07-2.21c0.01-0.17,0.04-0.28,0.18-0.27
		c0.67,0.02,3.44,0.14,3.97,0.21c1.03,0.15,1.41,0.58,1.53,1.15c0.07,0.37,0.06,0.73,0.08,1.01c0,0.14,0.05,0.26,0.24,0.27
		c0.25,0.01,0.26-0.3,0.27-0.53c0.01-0.19,0.13-1.31,0.17-1.87c0.16-1.43,0.29-1.87,0.29-2.04c0.01-0.17-0.08-0.23-0.19-0.23
		c-0.14,0-0.26,0.13-0.46,0.35c-0.26,0.27-0.68,0.34-1.36,0.38c-0.65,0.03-3.87-0.07-4.48-0.09c-0.17-0.01-0.2-0.12-0.19-0.31
		l0.23-7.09c0.01-0.19,0.06-0.28,0.21-0.27c0.56,0.02,3.5,0.17,3.98,0.24c1.4,0.21,1.66,0.56,1.84,1.08
		c0.13,0.34,0.14,0.81,0.13,1.01c-0.01,0.25,0.04,0.39,0.24,0.4c0.2,0.01,0.26-0.16,0.29-0.3c0.07-0.33,0.16-1.56,0.2-1.84
		c0.13-1.28,0.28-1.62,0.28-1.81c0-0.14-0.02-0.25-0.16-0.26c-0.14,0-0.31,0.07-0.45,0.1c-0.23,0.05-0.68,0.09-1.21,0.13
		c-0.53,0.01-6.11-0.17-7.01-0.2c-0.39-0.01-1.04-0.06-1.76-0.11c-0.7-0.02-1.51-0.08-2.27-0.1c-0.42-0.01-0.62,0.04-0.63,0.23
		c-0.01,0.2,0.16,0.26,0.47,0.27c0.39,0.01,0.87,0.06,1.09,0.12c0.92,0.23,1.13,0.68,1.15,1.64c0.03,0.9,0,1.68-0.14,5.94
		L116.58,228.68z M189.2,50.13c-1.76,1.89-3.27,3.51-4.18,4.28c-0.64,0.52-1.16,0.87-1.65,0.57c-0.22-0.13-0.5-0.32-0.81-0.61
		c-0.25-0.23-0.39-0.24-0.49-0.14c-0.13,0.14-0.04,0.34,0.22,0.59c0.41,0.38,0.98,0.84,1.46,1.28c0.51,0.44,0.96,0.86,1.19,1.07
		c0.61,0.57,1.23,1.18,2.08,2.05c0.86,0.84,1.95,1.93,3.49,3.37c0.78,0.73,0.97,0.9,1.61,0.5c0.48-0.31,1.95-1.55,2.39-2.03
		c0.19-0.2,0.34-0.37,0.18-0.52c-0.15-0.14-0.26-0.1-0.51,0.09c-0.93,0.71-1.57,0.91-2.34,0.66c-0.76-0.25-1.62-1.06-2.15-1.55
		c-2.09-1.95-2.14-2.57-0.85-4.02c0.53-0.61,2.31-2.48,2.96-3.18l1.51-1.62c0.12-0.12,0.21-0.18,0.31-0.09
		c0.49,0.46,2.5,2.37,2.86,2.77c0.68,0.79,0.68,1.37,0.4,1.87c-0.19,0.32-0.43,0.59-0.6,0.81c-0.1,0.1-0.13,0.23,0.01,0.36
		c0.19,0.17,0.4-0.05,0.55-0.22c0.13-0.14,0.96-0.9,1.36-1.3c1.06-0.97,1.45-1.22,1.56-1.34c0.12-0.12,0.09-0.22,0.01-0.3
		c-0.1-0.09-0.28-0.07-0.58-0.04c-0.37,0.03-0.74-0.19-1.27-0.61c-0.51-0.4-2.87-2.6-3.32-3.02c-0.12-0.12-0.07-0.22,0.06-0.36
		l4.84-5.19c0.13-0.14,0.23-0.17,0.33-0.07c0.41,0.38,2.53,2.43,2.84,2.79c0.91,1.08,0.88,1.52,0.68,2.02
		c-0.12,0.34-0.43,0.7-0.56,0.85c-0.17,0.18-0.22,0.32-0.08,0.46c0.14,0.13,0.3,0.05,0.42-0.03c0.27-0.21,1.15-1.07,1.36-1.26
		c0.94-0.88,1.27-1.04,1.41-1.18c0.1-0.1,0.15-0.2,0.05-0.3c-0.1-0.1-0.28-0.15-0.4-0.22c-0.21-0.11-0.57-0.38-1-0.7
		c-0.41-0.34-4.49-4.15-5.14-4.76c-0.29-0.27-0.74-0.73-1.26-1.24c-0.51-0.48-1.09-1.05-1.64-1.57c-0.31-0.29-0.49-0.38-0.62-0.24
		c-0.14,0.15-0.05,0.3,0.18,0.51c0.29,0.27,0.61,0.62,0.74,0.81c0.54,0.78,0.4,1.26-0.21,1.99c-0.57,0.7-1.11,1.27-4.01,4.39
		L189.2,50.13z M140.03,35.33c1.07,0.78,2.26,1.23,3.85,1.57c1.45,0.31,3.04,0.39,4.6-0.2c2.25-0.87,3.26-2.63,3.59-4.22
		c0.55-2.61-0.22-4.75-3.01-7.95l-0.64-0.74c-1.91-2.22-2.34-3.31-2.07-4.57c0.35-1.65,1.84-2.57,3.86-2.13
		c1.78,0.38,2.41,1.37,2.7,1.98c0.43,0.83,0.38,1.71,0.33,1.96c-0.07,0.33-0.03,0.51,0.17,0.55c0.22,0.05,0.35-0.16,0.48-0.76
		c0.46-2.14,0.73-2.91,0.81-3.27c0.04-0.19-0.08-0.3-0.31-0.41c-0.68-0.34-1.76-0.86-3.55-1.24c-3.81-0.81-6.79,0.82-7.43,3.83
		c-0.47,2.22,0.16,4.36,2.67,7.36l1.05,1.26c1.9,2.27,2.04,3.61,1.76,4.96c-0.31,1.45-1.88,2.87-4.34,2.35
		c-1.7-0.36-3.16-1.45-3.33-3.6c-0.04-0.49-0.02-1.09,0.05-1.45c0.05-0.22,0.07-0.47-0.18-0.52c-0.22-0.05-0.36,0.23-0.48,0.64
		c-0.12,0.43-0.58,2.05-0.9,3.56C139.58,34.89,139.63,35.05,140.03,35.33 M169.02,227.93c1.32-0.05,2.54-0.42,4-1.14
		c1.33-0.65,2.64-1.57,3.5-2.99c1.23-2.07,0.94-4.08,0.23-5.54c-1.17-2.39-3.1-3.6-7.27-4.41l-0.96-0.18
		c-2.87-0.57-3.88-1.17-4.44-2.33c-0.74-1.51-0.13-3.15,1.73-4.06c1.64-0.8,2.74-0.4,3.35-0.1c0.85,0.39,1.36,1.11,1.47,1.34
		c0.15,0.3,0.29,0.42,0.47,0.33c0.2-0.1,0.18-0.34-0.09-0.89c-0.96-1.97-1.22-2.74-1.38-3.07c-0.09-0.18-0.25-0.19-0.5-0.13
		c-0.74,0.15-1.92,0.41-3.56,1.21c-3.5,1.71-4.85,4.83-3.5,7.6c1,2.04,2.81,3.34,6.64,4.16l1.6,0.34c2.89,0.62,3.83,1.59,4.44,2.83
		c0.65,1.34,0.29,3.42-1.98,4.52c-1.56,0.76-3.38,0.81-4.85-0.79c-0.33-0.36-0.69-0.85-0.85-1.17c-0.1-0.2-0.24-0.41-0.46-0.3
		c-0.2,0.1-0.14,0.41,0.02,0.8c0.17,0.42,0.81,1.98,1.48,3.37C168.39,227.86,168.53,227.95,169.02,227.93 M169.44,36.99
		c-1.22,2.28-2.26,4.23-2.94,5.21c-0.45,0.68-0.89,1.14-1.44,0.98c-0.25-0.07-0.57-0.18-0.94-0.38c-0.3-0.16-0.43-0.13-0.5-0.01
		c-0.09,0.17,0.04,0.34,0.36,0.51c0.99,0.53,2.58,1.29,3.16,1.59c0.69,0.37,2.21,1.27,3.84,2.14c0.27,0.15,0.51,0.18,0.6,0
		c0.07-0.13-0.01-0.27-0.29-0.41c-0.37-0.2-0.89-0.54-1.21-0.77c-0.69-0.5-0.55-1.12-0.25-1.85c0.44-1.13,1.49-3.09,2.7-5.36
		l5.41-10.14l3.08,1.74c2.17,1.23,2.47,2.27,2.18,2.94l-0.12,0.29c-0.17,0.39-0.19,0.53,0.01,0.64c0.15,0.08,0.27-0.04,0.43-0.28
		c0.34-0.65,1.33-2.31,1.61-2.83c0.2-0.37,0.25-0.53,0.08-0.63c-0.1-0.05-0.32-0.11-0.73-0.23c-0.4-0.15-0.98-0.37-1.77-0.79
		l-9.8-5.23c-0.82-0.44-1.73-0.98-2.41-1.44c-0.59-0.38-0.71-0.76-0.9-0.86c-0.15-0.08-0.31,0.03-0.55,0.31
		c-0.15,0.17-1.82,2.17-2.03,2.56c-0.15,0.27-0.16,0.42,0.01,0.52c0.15,0.08,0.28,0.02,0.43-0.15c0.15-0.17,0.44-0.41,0.88-0.64
		c0.66-0.35,1.32-0.15,2.78,0.57l3.74,1.86L169.44,36.99z M202.05,194.76c1.92,1.73,3.57,3.21,4.35,4.1
		c0.55,0.6,0.89,1.14,0.61,1.63c-0.13,0.23-0.31,0.51-0.6,0.83c-0.22,0.25-0.23,0.39-0.13,0.48c0.15,0.13,0.34,0.04,0.58-0.23
		c0.75-0.83,1.87-2.2,2.3-2.68c0.52-0.58,1.77-1.84,3-3.22c0.21-0.23,0.29-0.45,0.15-0.58c-0.11-0.1-0.26-0.05-0.47,0.18
		c-0.28,0.31-0.73,0.73-1.03,0.99c-0.65,0.55-1.22,0.26-1.86-0.2c-0.99-0.7-2.64-2.18-4.56-3.91l-8.55-7.68l2.42-2.57
		c1.71-1.82,2.8-1.86,3.38-1.41l0.25,0.19c0.33,0.26,0.47,0.31,0.62,0.14c0.11-0.13,0.03-0.28-0.16-0.48
		c-0.54-0.49-1.92-1.84-2.36-2.24c-0.31-0.28-0.46-0.37-0.59-0.22c-0.07,0.08-0.18,0.29-0.4,0.66c-0.24,0.35-0.59,0.86-1.19,1.53
		l-7.42,8.26c-0.62,0.69-1.37,1.45-1.98,2c-0.51,0.48-0.91,0.5-1.06,0.67c-0.11,0.13-0.04,0.3,0.17,0.61c0.13,0.19,1.67,2.29,2,2.59
		c0.23,0.21,0.37,0.26,0.5,0.11c0.11-0.12,0.09-0.26-0.04-0.45c-0.13-0.19-0.29-0.52-0.41-1.01c-0.18-0.73,0.17-1.32,1.22-2.57
		l2.71-3.18L202.05,194.76z M209.62,89.08c-0.11-0.19-0.22-0.42-0.33-0.72c-0.14-0.4-0.57-1.49,0.02-3.67
		c0.64-2.31,1.78-5.26,3.19-9.01c3.43,1.25,5.51,1.01,7.29-0.06c1.61-0.97,2.26-2.66,2.31-3.61c0.11-1.83-0.71-3.53-1.62-5.04
		c-0.45-0.74-1.61-2.53-2.1-3.35c-0.3-0.51-1.14-2.06-1.9-3.33c-0.22-0.36-0.37-0.5-0.53-0.4c-0.17,0.1-0.13,0.27,0.03,0.54
		c0.2,0.33,0.42,0.76,0.49,0.98c0.31,0.9,0.04,1.32-0.75,1.86c-0.74,0.51-1.42,0.91-5.07,3.11l-4.23,2.54
		c-2.22,1.33-4.12,2.47-5.19,2.96c-0.76,0.32-1.36,0.52-1.74,0.09c-0.17-0.18-0.4-0.45-0.61-0.81c-0.17-0.29-0.3-0.34-0.43-0.27
		c-0.17,0.1-0.13,0.31,0.05,0.63c0.57,0.96,1.55,2.43,1.83,2.89c0.22,0.36,1.21,2.18,2.05,3.58c0.19,0.31,0.36,0.44,0.53,0.34
		c0.12-0.07,0.14-0.21,0.02-0.41c-0.17-0.29-0.44-0.84-0.61-1.23c-0.33-0.78,0.11-1.24,0.76-1.73c0.93-0.73,2.83-1.87,5.07-3.21
		l0.33-0.2c0.15-0.09,0.24-0.05,0.31,0.08l1.21,2.12c0.1,0.17,0.16,0.33,0.09,0.54c-0.17,0.53-1.14,2.61-1.89,4.37
		c-1.04,2.46-1.62,4.05-1.56,5.42c0.04,0.83,0.28,1.5,1.09,2.85l1.37,2.28c0.17,0.29,0.32,0.43,0.51,0.31
		C209.72,89.42,209.73,89.28,209.62,89.08z M212.42,74.26c-0.57-0.25-0.86-0.5-1.44-1.46c-0.36-0.6-0.72-1.37-0.85-1.97
		c-0.03-0.21,0.04-0.32,0.3-0.48l7.31-4.39c0.19-0.12,0.32-0.12,0.47,0.01c0.21,0.2,0.5,0.62,0.86,1.22
		c0.85,1.42,1.22,4.27-2.19,6.32C214.91,74.69,213.38,74.66,212.42,74.26z M160.85,231.52c-0.22,0.05-0.47,0.07-0.79,0.08
		c-0.43,0-1.59,0.05-3.46-1.22c-1.98-1.36-4.39-3.4-7.48-5.95c2.3-2.84,2.75-4.88,2.32-6.91c-0.39-1.84-1.78-3-2.66-3.37
		c-1.69-0.7-3.57-0.48-5.3-0.11c-0.85,0.18-2.92,0.7-3.85,0.9c-0.58,0.12-2.32,0.41-3.77,0.71c-0.41,0.09-0.6,0.18-0.56,0.37
		c0.04,0.19,0.22,0.21,0.52,0.15c0.38-0.08,0.85-0.15,1.09-0.14c0.95,0,1.26,0.39,1.51,1.31c0.24,0.87,0.4,1.64,1.28,5.81l1.02,4.82
		c0.53,2.53,0.99,4.7,1.1,5.87c0.06,0.82,0.05,1.45-0.48,1.68c-0.23,0.1-0.55,0.23-0.96,0.31c-0.33,0.07-0.42,0.18-0.39,0.32
		c0.04,0.19,0.25,0.23,0.61,0.15c1.09-0.23,2.8-0.68,3.33-0.79c0.41-0.09,2.46-0.44,4.05-0.77c0.35-0.07,0.53-0.2,0.49-0.39
		c-0.03-0.14-0.16-0.2-0.38-0.15c-0.33,0.07-0.94,0.14-1.37,0.18c-0.85,0.06-1.14-0.51-1.39-1.28c-0.38-1.12-0.84-3.29-1.38-5.84
		l-0.08-0.38c-0.04-0.17,0.04-0.24,0.17-0.27l2.4-0.45c0.19-0.04,0.36-0.04,0.53,0.09c0.44,0.33,2.1,1.93,3.51,3.21
		c1.99,1.79,3.3,2.86,4.61,3.24c0.79,0.23,1.51,0.23,3.05-0.1l2.6-0.55c0.33-0.07,0.51-0.17,0.46-0.38
		C161.2,231.53,161.07,231.47,160.85,231.52z M147.75,224.03c-0.42,0.46-0.75,0.65-1.85,0.88c-0.69,0.15-1.53,0.23-2.14,0.16
		c-0.21-0.04-0.29-0.14-0.35-0.44l-1.76-8.34c-0.05-0.22-0.01-0.34,0.17-0.44c0.26-0.14,0.74-0.27,1.43-0.41
		c1.62-0.34,4.43,0.24,5.26,4.13C148.98,221.82,148.45,223.25,147.75,224.03z M227.05,95.29l0.02,0.08c-0.42,0.6-3.2,4.38-5.53,8
		c-2.22,3.45-5.07,7.73-6.35,9.8c-0.24,0.37-0.47,0.76-0.4,1.06c0.05,0.25,0.32,0.31,0.92,0.18l17.37-3.37
		c1.54-0.3,2.17-0.2,2.55,0.52c0.15,0.31,0.2,0.53,0.26,0.8c0.07,0.33,0.19,0.48,0.35,0.44c0.22-0.05,0.19-0.33,0.11-0.69
		c-0.29-1.34-0.59-2.37-0.65-2.67c-0.12-0.58-0.32-1.91-0.62-3.34c-0.09-0.41-0.18-0.71-0.4-0.66c-0.17,0.04-0.22,0.16-0.15,0.49
		c0.08,0.38,0.22,1.04,0.14,1.49c-0.14,0.72-0.61,1.08-2.27,1.45l-12.26,2.89l-0.03-0.14c0.34-0.56,3.51-5.11,4.97-7.37
		c3.13-4.85,6.71-9.97,7-10.37c0.4-0.57,0.7-0.89,0.64-1.2c-0.06-0.27-0.46-0.27-1.01-0.16l-16.3,3.2
		c-2.39,0.48-3.21,0.54-3.58-0.13c-0.19-0.36-0.32-0.85-0.4-1.21c-0.06-0.28-0.15-0.43-0.32-0.39c-0.25,0.05-0.22,0.31-0.15,0.66
		c0.3,1.43,0.66,2.7,0.71,2.94c0.11,0.52,0.26,1.64,0.64,3.42c0.08,0.39,0.19,0.62,0.41,0.57c0.16-0.03,0.19-0.21,0.12-0.51
		c-0.09-0.44-0.18-0.96-0.11-1.47c0.07-0.59,0.71-1.1,2.84-1.61L227.05,95.29z M53.51,190.31l0.06,0.06c0,0.73-0.11,5.42,0.06,9.72
		c0.16,4.1,0.28,9.24,0.42,11.67c0.02,0.44,0.05,0.89,0.28,1.1c0.19,0.17,0.44,0.07,0.86-0.38l12.3-12.72
		c1.09-1.13,1.66-1.41,2.39-1.04c0.3,0.16,0.47,0.32,0.67,0.51c0.25,0.23,0.43,0.29,0.54,0.16c0.15-0.16-0.04-0.38-0.3-0.63
		c-1.01-0.94-1.84-1.6-2.07-1.82c-0.43-0.4-1.36-1.38-2.42-2.37c-0.31-0.29-0.55-0.48-0.7-0.31c-0.12,0.12-0.09,0.26,0.16,0.49
		c0.29,0.27,0.78,0.73,0.97,1.14c0.3,0.67,0.12,1.23-1.03,2.49l-8.39,9.4l-0.1-0.09c-0.04-0.66-0.05-6.19-0.15-8.89
		c-0.22-5.76-0.22-12.02-0.21-12.51c0-0.7,0.06-1.14-0.16-1.35c-0.2-0.19-0.53,0.04-0.92,0.45l-11.51,11.97
		c-1.69,1.76-2.32,2.28-3.01,1.95c-0.37-0.19-0.75-0.51-1.02-0.76c-0.21-0.19-0.37-0.26-0.48-0.14c-0.17,0.19-0.01,0.38,0.26,0.63
		c1.07,0.99,2.09,1.83,2.27,2c0.39,0.36,1.15,1.19,2.49,2.43c0.29,0.27,0.51,0.4,0.66,0.24c0.11-0.12,0.03-0.28-0.19-0.49
		c-0.33-0.31-0.7-0.69-0.93-1.14c-0.28-0.53-0.05-1.31,1.4-2.95L53.51,190.31z M30.31,166.5c-3.59,1.91-4.92,3.82-5.39,5.69
		c-0.67,2.67,0.52,5.09,1.22,6.4c0.86,1.62,2.08,3.25,4.52,4.2c2.89,1.13,5.95-0.15,8.71-1.61l2.65-1.41c3.77-2,4.46-2.37,5.28-2.74
		c0.89-0.41,1.42-0.44,1.9,0.16c0.2,0.27,0.31,0.41,0.46,0.68c0.16,0.29,0.28,0.42,0.46,0.33c0.17-0.09,0.13-0.29-0.06-0.64
		c-0.51-0.96-1.41-2.49-1.57-2.78c-0.01-0.03-0.77-1.63-1.44-2.88c-0.19-0.35-0.32-0.5-0.5-0.4c-0.17,0.09-0.14,0.27,0,0.54
		c0.15,0.28,0.34,0.71,0.4,0.93c0.26,0.91-0.03,1.32-0.85,1.81c-0.77,0.47-1.46,0.84-5.22,2.84l-3.1,1.65
		c-2.55,1.36-4.82,2.47-6.91,1.83c-1.52-0.46-2.57-1.62-3.15-2.71c-0.45-0.84-0.96-2.03-0.63-3.64c0.34-1.74,1.48-3.26,5.06-5.17
		l3.47-1.85c3.77-2,4.46-2.37,5.28-2.75c0.89-0.41,1.42-0.44,1.9,0.17c0.2,0.27,0.31,0.41,0.46,0.68c0.13,0.25,0.26,0.37,0.43,0.28
		c0.17-0.09,0.13-0.29-0.07-0.66c-0.48-0.89-1.38-2.42-1.69-3.01c-0.4-0.74-1.16-2.34-1.85-3.65c-0.2-0.37-0.34-0.52-0.51-0.43
		c-0.17,0.09-0.14,0.27,0,0.54c0.18,0.35,0.38,0.78,0.44,1c0.26,0.91-0.03,1.32-0.84,1.82c-0.77,0.47-1.46,0.84-5.22,2.84
		L30.31,166.5z M92.38,230.9c0.13,1.42,0.17,1.84,0.52,1.95c0.38,0.12,0.67-0.27,1.84-1.61c1-1.16,3.16-3.7,6.07-7.09
		c2.46-2.86,3.62-4.09,5.44-6.29c1.25-1.49,1.79-1.83,2.21-1.96c0.58-0.17,1.15,0,1.42,0.08c0.27,0.08,0.44,0.08,0.5-0.11
		c0.06-0.19-0.14-0.31-0.49-0.41c-0.81-0.25-2.09-0.55-2.55-0.69c-0.35-0.11-1.45-0.53-2.79-0.94c-0.51-0.16-0.77-0.18-0.83,0.04
		c-0.06,0.19,0.15,0.28,0.39,0.35c0.35,0.11,0.74,0.26,1.03,0.46c0.22,0.16,0.26,0.4,0.19,0.62c-0.07,0.24-0.3,0.61-0.54,0.92
		c-1.19,1.58-7.31,9.15-9.36,11.74l-0.11-0.03l-0.89-13.59c-0.08-1.08-0.1-1.91,0.01-2.25c0.08-0.25,0.21-0.41,0.44-0.48
		c0.26-0.09,0.68,0,1.1,0.13c0.24,0.07,0.42,0.07,0.48-0.12c0.06-0.19-0.22-0.33-0.54-0.43c-1.34-0.41-2.65-0.72-3.32-0.93
		c-0.94-0.29-2.44-0.83-3.87-1.27c-0.4-0.12-0.71-0.19-0.77,0.03c-0.05,0.16,0.01,0.26,0.25,0.34c0.22,0.07,0.65,0.2,1.02,0.43
		c0.88,0.56,1.25,1,1.41,2.66L92.38,230.9z M220.12,173.91c0.41,0.2,1.46,0.72,2.49,1.31c0.71,0.41,1.15,0.91,1.01,1.46
		c-0.06,0.25-0.16,0.58-0.33,0.93c-0.14,0.28-0.12,0.44,0.01,0.51c0.2,0.1,0.35-0.08,0.52-0.44c0.45-0.93,1.16-2.56,1.47-3.19
		c0.33-0.68,1.18-2.23,1.96-3.82c0.16-0.33,0.18-0.57,0.01-0.65c-0.13-0.06-0.27,0.03-0.4,0.31c-0.17,0.35-0.49,0.88-0.71,1.21
		c-0.47,0.7-1.14,0.66-1.89,0.35c-1.09-0.44-2.15-0.96-2.56-1.16l-2.07-1.01c-0.83-0.41-1.61-0.79-2.33-1.61
		c-0.86-0.99-5.06-7.41-5.67-8.73c-0.41-0.89-0.57-1.31-0.57-1.97c-0.02-0.47,0.12-1.01,0.24-1.26c0.14-0.28,0.16-0.52-0.01-0.6
		c-0.15-0.07-0.29,0.08-0.42,0.36c-0.23,0.48-0.97,2.18-1.25,2.73c-0.36,0.73-0.82,1.5-1.23,2.33c-0.15,0.3-0.16,0.45,0.02,0.54
		c0.15,0.07,0.31-0.13,0.48-0.33c0.31-0.38,0.63-0.35,0.89-0.22c0.33,0.16,0.71,0.47,1.14,1c0.61,0.73,4.6,6.62,5.08,7.16
		c-0.9,0.06-8.7,0.62-9.63,0.6c-0.44,0-0.8-0.02-1-0.12c-0.2-0.1-0.34-0.32-0.28-0.57c0.08-0.43,0.14-0.62-0.01-0.69
		c-0.15-0.07-0.29,0.01-0.41,0.27c-0.56,1.14-0.99,2.2-1.25,2.73c-0.41,0.83-1.4,2.69-1.62,3.14c-0.15,0.3-0.16,0.51-0.01,0.59
		c0.18,0.09,0.31-0.07,0.41-0.27c0.15-0.3,0.51-0.66,0.85-0.9c0.51-0.34,1.45-0.66,2.69-0.84c1.74-0.24,8.94-0.91,9.43-0.89
		c0.89,0.03,1.57,0.05,2.93,0.71L220.12,173.91z"/>
	<path fill="none" stroke="#002F65" stroke-width="2.6477" stroke-miterlimit="3.864" d="M5.33,125.05
		c0-66.11,53.6-119.71,119.72-119.71c66.11,0,119.72,53.6,119.72,119.71c0,66.11-53.61,119.71-119.72,119.71
		C58.93,244.76,5.33,191.16,5.33,125.05z"/>
	<path fill="none" stroke="#002F65" stroke-width="0.218" stroke-miterlimit="3.864" d="M192.2,74.3l-20.02,14.97 M193.95,76.69
		l-19.24,13.38 M195.61,79.15l-19,12.24 M197.18,81.65l-21.55,12.86 M198.67,84.22l-21.25,11.69 M200.07,86.85L177.9,98.03
		 M201.36,89.5l-23.42,10.83 M202.57,92.22l-19.45,8.18 M203.68,94.97l-21.92,8.32 M204.69,97.76l-21.37,7.28 M205.6,100.59
		l-17.55,5.3 M206.41,103.44l-17.44,4.61 M207.12,106.33l-22.6,5.14 M207.72,109.23l-25.84,4.94 M208.22,112.14l-29.8,4.62
		 M208.62,115.09l-27.14,3.24 M208.92,118.05l-23.94,2.02 M209.11,121l-19.79,0.98 M53.21,126.19l-12.42,0.18 M209.2,123.97
		l-24.45,0.35 M57.75,123.81l-16.97-0.35 M59.03,121.56l-18.14-1.01 M64.3,119.69l-23.21-2.05 M68.12,118.12l-26.73-3.37
		 M61.93,115.11l-20.14-3.25 M64.36,113.36l-22.07-4.37 M67.08,111.81l-24.19-5.67 M58.41,107.33L43.6,103.3 M61.84,105.9
		l-17.44-5.39 M64.19,104.31l-18.9-6.58 M65.72,102.52l-19.43-7.53 M64.66,99.68l-17.29-7.39 M66.66,98.13l-18.1-8.51 M70.19,97.45
		L49.83,86.99 M69.47,94.61L51.2,84.41 M73.7,94.61L52.65,81.88 M77.46,94.61L54.19,79.4 M76.55,91.58L55.82,76.97 M74,87.11
		l-16.47-12.5 M77.85,87.41L59.32,72.3 M80.84,87.25L61.19,70.06 M81.1,84.72L63.14,67.88 M81.93,82.65L65.16,65.77 M82.53,80.21
		L67.25,63.72 M82.65,77.08L69.42,61.76 M85.26,76.78L71.65,59.86 M87.97,76.78L73.94,58.05 M88.38,73.68L76.3,56.31 M89.43,71.27
		L78.72,54.66 M92.03,71.26L81.19,53.09 M91.27,65.34l-7.55-13.73 M97.59,67.64l-8.66-18.73 M99.5,66.46l-7.9-18.76 M101.12,64.49
		l-6.8-17.9 M103.59,64.23l-6.5-18.67 M104.82,61.09l-4.96-16.45 M107.22,61.01l-4.55-17.2 M131.17,47.24l0.62-6.14 M133.7,49.31
		l1.05-7.92 M135.9,52.18l1.76-10.4 M137.98,55.15l2.6-12.88 M139.91,57.77l3.56-14.91 M142.3,58.6l4.06-15.04 M143.82,61.54
		l5.37-17.19 M146.3,61.81l5.71-16.56 M147.56,64.89l7.22-18.64 M149.53,66.02l8-18.68 M152.05,65.95l8.18-17.42 M152.05,70.94
		l10.85-21.12 M154.46,70.97l11.05-19.78 M157.01,70.97l11.07-18.31 M159.65,70.97l10.95-16.74 M162.42,70.97l10.63-15.1
		 M163.04,73.98l12.42-16.36 M163.89,76.47l13.9-17.04 M165.82,77.6l14.23-16.28 M167.56,78.98l14.7-15.68 M169.8,79.86l14.6-14.51
		 M164.73,87.62l21.72-20.14 M167.68,87.62l20.77-17.94 M170.89,87.62l19.47-15.68 M117.61,47.24l-0.5-6.05 M115.19,49.51
		l-0.99-8.01 M112.94,52.8l-1.66-10.87 M110.8,55.01l-2.41-12.55 M108.87,57.98l-3.35-14.89 M94.37,66.17L86.3,50.21 M209.19,126.61
		l-24.44-0.51 M120.02,45.93l-0.34-4.94 M128.77,45.24l0.33-4.32 M56.52,128.37l-15.65,0.78 M56.56,130.73l-15.5,1.31 M57.06,132.77
		l-15.75,1.89 M209.1,129.27l-24.72-1.38 M208.92,131.97l-19.09-1.75 M208.7,134.33l-14.97-1.61"/>
	<path fill-rule="evenodd" clip-rule="evenodd" fill="#002F65" d="M124.31,41.04c-14.03,9.65-24.76,29.32-24.74,41.91v46.06h2.25
		V86.04c5.09,3.28,6.4,8.49,8.37,12.25l-1.21,1.34c1.01,0.12,1.68-0.35,2.04-0.06c-1.46,2.33-2.91,3.43-3.65,5.44
		c1.85-0.35,3.37-0.35,4.46-0.12c-1.83,0.77-4.42,0.48-5.72,2.51c1.78,0.53,3.88,1.77,4.91,1.77c1.02,0,3.53-1.24,5.3-1.77
		c-2.32-3.37-1.73-7.12-4.08-9.52c1.2-2.33,2.43-3.74,3.51-6.08c3.1,3.61,5.53,6.22,7.55,9.37l-1.6,1.78
		c1.07-0.35,2.56-0.34,3.65-0.16c-4.55-0.32-4.28,4.53-5.7,7.12c2.26-0.33,3.65-0.73,4.67-0.73c1.02,0,0.67,0.35,1.02,0.6
		c-1.34,0.78-3.37,0.67-4.96,1.06c-1.19,0.3-2.14,0.87-2.39,2.31c1.97,1.28,6.58,3,6.74,3c1.02,0,5.03-1.68,6.75-3.02
		c-0.29-0.67-0.63-1.45-0.97-2.28c-1.71-3.98-3.94-9.16-3.94-10.06c0-1.33,6.61-7.48,7.52-8.17c1.1,2.36,2.33,3.77,3.54,5.68
		l-1.22,1.34c1.01,0.12,1.73-0.31,2.45-0.06c-2.84,2.16-3.22,3.09-4.03,5.86c1.04-0.37,1.77-0.76,2.8-0.76
		c1.02,0,0.88-0.07,1.24,0.17c-1.84,0.82-3.67,0.65-4.91,2.97c1.36,0.54,3.47,1.78,4.49,1.78c1.02,0,3.54-1.23,5.3-1.75
		c-1.22-3.44-4.07-9.1-4.07-10.12c0-1.02,4.47-6.82,7.06-10.84v31.49h2.33V82.65C149.1,70.62,138.34,48.73,124.31,41.04z
		 M134.75,66.14c1.95,0,2.41,2.18,2.41,3.69c0,2.38-0.82,4.15-2.56,4.15c-1.93,0-2.42-2.16-2.42-3.7
		C132.17,67.91,132.96,66.14,134.75,66.14z M128.38,66.14c1.95,0,2.42,2.18,2.42,3.69c0,2.38-0.82,4.15-2.57,4.15
		c-1.94,0-2.42-2.16-2.42-3.7C125.81,67.91,126.6,66.14,128.38,66.14z M102.04,81.94v-3.08c-0.04-7.78,13.46-31.65,22.42-34.64V77.4
		L102.04,81.94z M115.51,107.39c-1.02,0.16-2.45,0.98-3.48,0.98c-0.87,0-1.84-0.82-4.51-1.03c1.24-0.2,3.07-1.02,4.1-1.02
		C112.65,106.32,114.58,106.75,115.51,107.39z M111.21,95.67c-1.72-3.71-3-6.73-6.32-9.89c3.08,0.45,6.04,2.13,8.98,4.54
		C113.04,92.49,112.22,93.49,111.21,95.67z M114.93,88.53c-2.73-2.09-6.37-4.35-9.66-5.12c5.08-1.01,10.39-1.83,15.52-2.97
		C118.75,83.14,116.71,85.99,114.93,88.53z M130.66,113.06c-1.37,0.62-3.68,1.44-4.7,1.44c-0.67,0-4.14-0.43-5.94-1.45
		c1.37-0.58,4.3-1.41,5.32-1.41C126.37,111.64,128.87,112.47,130.66,113.06z M124.72,99.36c-2.22-3.37-5.06-5.98-7.98-9.37
		c0.34-0.68,4.92-9.65,8.18-9.65c3.28,0,7.24,8.54,8.2,10.05C129.79,93.79,127.35,96,124.72,99.36z M129.47,80.84l13.89,2.56
		c-3.03,0.87-5.32,3.25-8.84,5.52C132.75,86.39,131.11,83.53,129.47,80.84z M142.95,107.78c-1.02,0.18-2.25,0.99-3.28,0.99
		c-0.67,0-2.46-0.81-4.91-0.99c1.35-0.63,2.86-1.46,3.88-1.46C139.67,106.32,141.58,107.15,142.95,107.78z M138.23,95.25
		c-0.99-1.75-1.81-2.33-2.65-4.09c2.14-2.67,5.58-5.23,8.37-5.85h1.45C142.49,89.27,140.47,91.89,138.23,95.25z M136.15,70.21
		c0,2.13-0.54,3.31-1.35,3.31c-1.14,0-1.56-1.88-1.56-3.63c0-2.15,0.52-3.31,1.34-3.31C135.69,66.59,136.15,68.49,136.15,70.21
		 M129.79,70.21c0,2.13-0.54,3.31-1.36,3.31c-1.14,0-1.56-1.88-1.56-3.63c0-2.15,0.52-3.31,1.33-3.31
		C129.33,66.59,129.79,68.49,129.79,70.21"/>
	<path fill="#002F65" d="M115.42,69.2c0-0.54-0.01-0.97-0.01-1.31c0-0.24,0-0.36-0.13-0.36c-0.18,0-0.86,0.39-1.05,0.48
		c-0.05,0.03-0.09,0.05-0.13,0.05c-0.03,0-0.06-0.05-0.06-0.12c0-0.05,0.04-0.1,0.09-0.13c0.03-0.03,1.75-1.28,2.08-1.55
		c0.07-0.06,0.17-0.13,0.23-0.13c0.08,0,0.09,0.11,0.09,0.21c0,0.08-0.03,1.06-0.03,2.6v1.85c0,0.96,0,1.82,0.03,2.26
		c0.02,0.31,0.08,0.46,0.36,0.53c0.13,0.03,0.52,0.06,0.59,0.06c0.03,0,0.07,0.03,0.07,0.1c0,0.07-0.05,0.09-0.15,0.09
		c-0.69,0-1.26-0.03-1.51-0.03c-0.2,0-0.96,0.03-1.54,0.03c-0.1,0-0.15-0.02-0.15-0.09c0-0.07,0.04-0.1,0.07-0.1
		c0.1,0,0.55-0.04,0.72-0.07c0.28-0.08,0.33-0.22,0.36-0.52c0.04-0.44,0.04-1.3,0.04-2.26V69.2z M121.2,66.13
		c-1.53,0-2.54,0.98-2.54,2.33c0,0.83,0.6,1.93,2.03,1.93c0.5,0,1.01-0.15,1.3-0.46c0.02-0.02,0.04-0.08,0.04-0.11
		c0-0.04-0.04-0.08-0.07-0.08c-0.04,0-0.09,0.05-0.2,0.11c-0.12,0.05-0.32,0.12-0.67,0.12c-0.34,0-1.31-0.37-1.31-1.9
		c0-0.85,0.47-1.48,1.18-1.48c0.76,0,1.5,0.77,1.5,2.54c0,2.36-1.53,4.01-2.57,4.63c-0.05,0.04-0.11,0.11-0.11,0.17
		c0,0.05,0.05,0.1,0.09,0.1c0.09,0,0.13-0.01,0.18-0.05c1.23-0.58,3.65-2.34,3.65-5.13C123.69,67.33,122.82,66.13,121.2,66.13"/>
	<path fill="#002F65" stroke="#002F65" stroke-width="0.1142" stroke-miterlimit="3.864" d="M52.23,143.38
		c-0.4,0.63,3.89,0.27,3.89,0.27s-1.85-1.12-1.85-1.75c0-0.63-0.4-1.06-0.4-1.06L52.23,143.38z M53.86,138.35
		c0,0,0.61-2.11,0.21-3.21c-0.41-1.11-0.82,2.79-1.43,2.17l-1.98-0.64l1.78,1.85L53.86,138.35z M58.47,129.55l0.62,0.55
		c0.6,0.91,0.28,2.45-0.3,3.05c-1.97,2.1,2.74-0.95,2.74-0.95l-2.44-2.1C58.94,129.87,58.74,129.68,58.47,129.55z M62.3,127.93
		c1.43,0.42,1.22,1.39,1.63,2.08c0.4,0.68,1.22,0.8,1.63,0c0.4-0.8,0.82-1.44-0.21-2.28c-1.02-0.85-2.38-0.21-2.38-0.21L62.3,127.93
		z M109.89,132.5c-0.23,0.5-0.13,0.81,0.15,1.31c0.23,0.4,0.4,0.66,0.58,1.01c0.05,0.11,0.1,0.2,0.13,0.29
		c-0.04-0.22-0.1-0.46-0.25-0.71c-0.44-0.77-0.36-0.3-0.36-0.85c0-0.54-1.27-0.1,0.03-0.97c1.3-0.85,0.62-0.89,0.19-1.35
		c-0.1-0.11-1.75,0.33-1.85,0.29C108.84,131.86,110.1,132.03,109.89,132.5z M70.52,138.97c-0.43,0.06-0.94,0.31-1.29,0.64
		c-0.24,0.21-0.61,0.31-1.08,0.4c0.23,0.11,0.49,0.26,0.79,0.45c1.73,1.08,0.28,0.16,0.96-0.53
		C70.18,139.63,70.39,139.28,70.52,138.97z M68.12,142.19l0.08,1.59c0.58-0.4,1.17-0.85,1.39-1.23l0.1-0.18
		c0.06,0.18,0.28,0.43,0.98,0.1c0.13-0.06,0.26-0.15,0.4-0.24l-0.18-0.05C69.75,142.06,70.24,142.17,68.12,142.19z M71.59,121.78
		c-0.1,0.19-0.25,0.4-0.36,0.64c-0.36,0.69,0.07,1.7,0.07,1.7s-0.15-0.39,0.57-0.86c0.7-0.45,0.38-0.25,0.83-0.73
		c-0.43-0.53-0.5-0.69-0.5-0.71c0,0,0.05,0.15-0.31,0.06C71.79,121.85,71.68,121.82,71.59,121.78z M74.55,124.14
		c0.05,0.23,0.08,0.54-0.01,0.98c0.33,0.17,0.68,0.17,1.03-0.11c0.57-0.47-0.15-0.55-0.8-0.78L74.55,124.14z M84.82,143.55
		c-0.38,0.42-0.71,1.03-1.16,1.67c-0.7,0.95-1.34-0.19-1.98-0.64c0.17,1,0.19,0.71,0.47,1.14l0.17,0.28
		c0.4-0.07,0.82-0.16,1.27-0.16c1.08,0,0.51,0-0.07,1.17c-0.16,0.32-0.18,0.54-0.16,0.66c0.12,0.32,0.38,0.67,0.53,0.67
		c0.36,0,0.64-1.39,0.72-2.16C84.67,145.56,84.53,144.65,84.82,143.55z M81.12,144.29c-0.4-0.34-0.39-1.07-0.56-2.24
		c-0.06-0.35-0.1-0.58-0.13-0.71c-0.15,0.06-0.19,0.32-0.24,0.62c-0.15,0.78-0.15,0.32-0.86-0.3c-0.73-0.62-0.87-0.23-1.23-0.23
		c-0.15,0-0.45,0.18-0.72,0.47l0.34,0.61c0.27-0.2,0.4,0.38,0.88,0.71c0.35,0.22,0.38,0.26,0.39,0.4c0.93,0.63,0.42,0.86,1.35,1.33
		c0.93,0.46,1.23,1.47,0.86-0.23L81.12,144.29z M77.33,141.94c-0.35,0.4-0.65,1.01-0.53,1.65c0.22,1.16,0.29-0.15,0.73-0.85
		c0.05-0.08,0.09-0.15,0.13-0.19L77.33,141.94z M66.19,140.53c-0.37,0.16-0.77,0.36-1.17,0.63c-1.95,1.32-0.72-1.24-1.31-2.71
		c-0.06-0.17-0.12-0.31-0.18-0.42c-0.13-0.08-0.25-0.2-0.35-0.34c-0.28,0.06-0.65,0.87-1.69,2.23c-1.66,2.17,0.14,0.84,0.94,0.38
		c0.79-0.46,1.01,2.09,2.59,2.87c1.59,0.77,1.66-0.55-0.36,2.4c-2.02,2.94-1,1.03-4.54-0.38c-1.26-0.5-0.78,0.91-0.93,0.65
		c-0.83,0.73-3.04,0.05-3.53-0.53c0.26,0.74,3.1,1.67,3.57,2.37c0.28,0.03,0.71,0.12,1.15,0.42c0.79,0.54,0.02,0.51,0.96,0.98
		c0.94,0.47,1.23,1.47,0.87-0.23c-0.36-1.7-0.5-2.78-0.5-2.78s0.43-0.93,0.79,1.46c0.36,2.41,0.29,1.78,0.65,2.33
		c0.35,0.54,1.72,1.72,2.08,1.72c0.36,0,0.3-0.48,0.37-1.27c0.07-0.77-0.15-1.99,0.51-3.47c0.61-1.41,0.37-1.78,0.96-2.26
		c-0.13-0.58-0.28-1.17-0.46-1.72c-0.09-0.29-0.15-0.57-0.19-0.84C65.66,141.7,65.9,141.04,66.19,140.53z M66.79,142.13
		c0.12,0.74,0.3,1.62,0.49,2.29l0.78-0.53c0.02-0.53-0.01-1.03-0.05-1.26c-0.03-0.11-0.05-0.26-0.07-0.44h-0.31
		C67.3,142.19,67.02,142.17,66.79,142.13z M49.34,139.51c1.07-1.01-1.7-1.19-2.72-0.96c-1,0.23-0.5,1.01-0.5,2.02
		c0,0.61,0.27,0.36,0.8,0.17C47.12,140.21,48.72,140.1,49.34,139.51z M58.25,143.63c0.18-0.19,0.18-0.3,0.13-0.33
		C58.29,143.25,58.12,143.38,58.25,143.63z M67.07,144.58l0.07,0.31l0.2-0.24l-0.06-0.22L67.07,144.58z M67.14,144.88
		c-0.46,0.76-0.89,2.93-1.03,3.58c-0.15,0.7,0.21,2.63,0.21,2.63s0.36-1.24,0.94-2.49c0.57-1.24,0.86-1.05,0.43-1.93
		C67.48,146.22,67.31,145.58,67.14,144.88z M67.34,144.64c0.1,0.31,0.19,0.57,0.28,0.7c0.28,0.37,0.4-0.46,0.44-1.33
		C67.81,144.21,67.55,144.42,67.34,144.64z M72.66,143.68c-1.58,0-1.11-0.74-1.26-1.17l-2.38,0.97c-0.25,0.09-0.54,0.25-0.81,0.44
		c0.05,1.28,0.08,2.43,0.08,2.67c0,0.54-0.14,1.17,0.5,0.47c0.65-0.7,1.53-1.96,1.96-2.19C71.17,144.65,72.21,144.2,72.66,143.68z
		 M88.56,135.22c0.53,0.13,1.21,0.2,1.67,0.22c0.02-0.08,0.03-0.17,0.03-0.26C90.19,134.64,89.25,134.78,88.56,135.22z
		 M97.64,119.77l0.7-3.09c0,0-1.21,1.31-1.42,1.95c-0.09,0.3-0.24,0.82-0.35,1.29C96.93,119.51,97.26,119.68,97.64,119.77z
		 M112.39,119.98l-0.61,2.07l1.78-0.21L112.39,119.98z M117.22,128.83l-1.01-2.38l-2.85,0.89c0,0-1.02,1.49,0,1.28
		c1.02-0.21,1.22-0.42,1.83-0.21C115.79,128.61,117.22,128.83,117.22,128.83z M106.28,121.19l1.21,0.95c0.24,0.8-0.2,1.81-0.2,1.81
		l1.43-0.85l-1.24-0.96c-0.09-0.3-0.27-0.57-0.61-0.74L106.28,121.19z M103.05,126.09c0.31-0.65,0.48-1.21-0.39-1.93
		c-0.9-0.76-2.07-0.34-2.33-0.23c0.18,0.39,0.53,0.32,0.69,0.37c0.22,0.08,0.8,0.86,0.8,1.86
		C101.82,127.12,102.08,126.67,103.05,126.09z M83.32,125.86c0.49-0.06,0.89,0.16,1.37,0.62c0.4,0.02,0.79,0.08,1.17,0.04
		c0.18-0.02,0.33-0.07,0.46-0.13c0.1-0.2,0.24-0.41,0.43-0.63l0.16-0.2c-0.01-0.11-0.03-0.24-0.09-0.37
		c-0.4,0.11-1.01,0.21-1.52-0.29c-1.08-1.08-1.23-0.7-1.69-0.38c-0.07,0.06-0.17,0.05-0.29,0c-0.34,0.37-0.5,0.81-0.59,1.17
		c0.36,0.07,0.59,0.13,0.59,0.13L83.32,125.86z M91.97,136.41c-0.63-0.21-0.8-0.39-0.86-0.56c-0.42,0.06-0.63,0.08-0.76,0.09
		c0.02,0.23,0.12,0.6,0.31,1.21c0.04,0.16,0.06,0.3,0.08,0.44C91.16,137.22,91.6,136.78,91.97,136.41z M100.03,132.28
		c0.01-0.87-3.39-0.8-3.45-1.85l-1.58,0.5c0,0,2.92-0.27,2.63,0.5c0.31,0.21,0.61,0.65,0.92,1.21
		C99.16,132.51,99.63,132.39,100.03,132.28z M101.95,141.63c0.03-0.6,2-2.41,2.33-3.18c0.01-0.44-2.06-1.11-2.13-1.54
		c-0.22-1.4-0.22-0.85-0.36-0.08c-0.14,0.74-2.12-0.96-2.76-1.54l1.77,1.59c-0.33,0.48-0.57,0.83-0.77,1.04
		c0.05,0.06,0.11,0.11,0.17,0.15c0.58,0.39,0.3,0.23,0.44,0.93C100.74,139.53,101.38,141.24,101.95,141.63z M99.04,139.2
		c0.44,0.77,1.75,4.6,1.99,4.6c0.23,0,0.21-2.51,0.34-3.11c-1.6-0.38-0.5,1.5-1.24,1.43L99.04,139.2z M97.6,140.44
		c0.85,0.48,1.11,1.35,0.76-0.29l-0.13-0.63C98.16,139.48,98.09,139.99,97.6,140.44z M92.29,136.64l0.72,1.28
		c0.07-0.39,2-1.04,3.14-1.79c-0.96-0.45-3-0.3-3.22-0.55c-0.06-0.03-0.13-0.04-0.2-0.04c-0.23,0.22-0.37,0.39-0.44,0.54l0.5-0.53
		C92.79,135.55,92.59,136.07,92.29,136.64z M103.32,141.53L103.32,141.53z M109.7,135.41c-0.34,0.04-0.7,0.13-1.01,0.23
		c-0.06,0.16,1.06,1.19,1.28,1.96c0.22,0.77-0.07,0.63-0.58,0.7c-0.51,0.07-0.94-0.38-1.95-0.38c-1.01,0-1.39,1.08-2.18,2.18
		c-0.39,0.51-0.97,0.78-0.97,0.78c-0.14,0.15,0.3,1.35-0.2,1.08c-0.39-0.21-0.64-0.35-0.77-0.43c0.17,0.16,0.8,1.64-0.13,1.46
		c-0.02,1.19,0.22,3.11,0.22,3.9c0,1.01,0.07,3.34,0.29,4.41c0.21,1.06-0.15,2.35,0.45,3.81c0.59,1.46-0.07,1.09-0.7,0.75
		c-0.28-0.16-0.4-0.3-0.51-0.28c-0.13,0.02-0.25,0.26-0.61,1.01c-0.65,1.31-0.8,0.48-1.3-0.32c-0.5-0.79-0.22-0.62-0.64-0.38
		c-0.3,0.15-1.07,0.38-1.39,0.47c-0.08,0.11-1.07,0.68,0.58-1.64c0.66-0.92,0.65-1.77,0.73-5.25c0.06-2.92-0.14-2.03,0.08-4.05
		c0.19-1.84-0.85-2.19-1.42-2.99c-0.51,0.31-0.37,0.12-0.34-0.58c-0.3-0.49-0.28,0.02-1.27-0.85l-0.23-0.19
		c-0.75,0.53-0.3,0.28-0.83,1.01c-0.58,0.79-1.99,0.03-2.06-0.69c-0.07-0.71-0.22-0.16-0.59,0.16c-0.35,0.31-0.06-0.62,0.08-1.09
		c0.03-0.1-0.01-0.17-0.09-0.22c0,0.28-0.05,0.46-0.05,0.46l-0.42-0.52c0.21-0.01,0.37,0.02,0.47,0.07c0-0.26-0.06-0.62-0.27-1.01
		c-0.44-0.78-0.36-0.31-0.36-0.86c-0.32-0.66-0.59-1.23-0.71-1.46c-0.33,0.6-0.76,1.26-1.24,1.46l-0.34,0.14
		c-0.16,0.66-0.71,0.97-1,1.17c-0.23,0.16-0.34,0.36-0.71,0.49c0.67,1.28-0.48,0.82-0.99,0.59c-0.22-0.1-0.39-0.27-0.53-0.37h-0.26
		l0.05,1.12c0.25,0.32,0.72,0.63,0.98,1.17c0.56-0.67,1.16-1.49,1.51-1.67c0.43-0.24,1.51-0.71,1.94-1.25
		c0.44-0.53,1.23-1.16,1.23-1.16l0.5,1.39l-0.29,0.18c-0.45,0-1.07,0.12-1.58,0.29c-0.58,0.19-1.95,1.65-3.11,2.95
		c-0.01,0.17-0.09,0.22-0.22,0.24c-0.66,0.76-1.24,1.41-1.53,1.72c-0.8,0.85-0.35,0.85-0.57,1.71c-0.21,0.84,0.14,3.15,0.14,4.15
		c0,1.02,0.08,3.82,0.3,4.9c0.22,1.06-0.15,2.33,0.45,3.8c0.58,1.46-0.08,1.09-0.7,0.75c-0.27-0.16-0.4-0.28-0.51-0.27
		c-0.13,0.02-0.25,0.26-0.61,1.01c-0.65,1.31-0.79,0.48-1.29-0.31c-0.51-0.8-0.22-0.62-0.65-0.38c-0.29,0.16-1.07,0.38-1.38,0.47
		c-0.08,0.12-1.06,0.69,0.59-1.63c0.66-0.93,0.65-2.25,0.72-5.74c0.07-2.92-0.13-1.54,0.08-3.57c0.14-1.39-0.41-1.93-0.93-2.45
		c0.2,0.8,0.23,0.79-1.89,0.34c-2.17-0.47-1.08-0.55-1.87-0.62c-0.79-0.08-0.36-0.16-1.16,0.31c-0.79,0.46-0.07-0.16-0.5-1.96
		c-0.44-1.8,0-0.62-1.11,0.16c-1.1,0.77,0.54-0.12-0.04,0.67c-0.58,0.8-0.44-0.47-0.51-1.17c-0.07-0.72-0.22-0.16-0.58,0.15
		c-0.36,0.31-0.07-0.62,0.07-1.08c0.04-0.1,0-0.18-0.09-0.22c0,0.28-0.05,0.45-0.05,0.45l-0.42-0.52c0.21-0.01,0.37,0.02,0.47,0.07
		c0-0.19-0.03-0.43-0.11-0.67l-0.22,0.07l0.13,0.35l-0.29,0.18c-0.45,0-1.09,0.13-1.59,0.29c-0.94,0.31-3.94,4.18-4.75,5.03
		c-0.82,0.86-0.47,0.71-0.69,1.57c-0.22,0.86,0.42,2.58,0.42,3.58c0,1.01-0.21,4.97,0.01,6.03c0.22,1.07,0.56,2.04,1.14,3.5
		c0.6,1.46,0.33,1.4-0.3,1.05c-0.28-0.14-0.39-0.28-0.51-0.26c-0.13,0.01-0.24,0.26-0.61,1c-0.65,1.31-0.79,0.49-1.3-0.31
		c-0.51-0.79-0.21-0.62-0.65-0.38c-0.26,0.13-0.7,0.25-0.89,0.28c-0.3,0.22-1.46,0.75,0.1-1.44c0.66-0.93,0.08-1.2,0.15-4.68
		c0.06-2.92-0.15-4.14,0.07-6.16c0.22-2.04-1.59-1.28-2.11-2.27c-0.51-1.01-0.29-0.16-1.44-1.16c-1.15-1.01-1.08-1.01-1.73-1.7
		c-0.06-0.08-0.61-0.32-0.61-0.32l-1.31-3.03l-0.26-0.09c-1.23-0.38-0.5-0.93-1.08-0.85c-0.58,0.07-0.58,0.15-0.15,1.63
		c0.44,1.47-2.22,1-2.65,1.3c-0.44,0.3,0.25,2.15-1.85,2.15c-2.09,0-0.71-0.91-1.94-1.06c-1.23-0.16,0.7-1.49-1.33,0.26
		c-1.18,1.03-2.16,0.3-2.39-0.32c-0.22-0.6-0.57-1.15,1.33-1.91c1.91-0.75-0.57-0.91,0.09-1.6c0.67-0.71,3.02-1.35,3.02-1.35
		s-1.1-0.86-1.32-0.92c-0.09-0.04-0.59-0.05-1.11-0.08c-0.25,0.15-0.5,0.31-0.71,0.46c-0.73,0.55-1.81,2.23-2.05,1.51
		c-0.57-1.72,0.17-1.57-0.12-2.73c-0.29-1.17-1.84-0.97-0.97-1.75c0.87-0.77,1.56-3.85,0.22-2.23c-1.37,1.6-1.58,0.03-2.25-0.73
		c-0.68-0.76-0.12-1.26,0.81-1.03c0.92,0.23,0.21-1.47,0.58-1.71c0.35-0.22,1.72,0.76,2.37,0.3c0.65-0.46,0.84,0.92,1.71,0.69
		c0.86-0.23,1.39,0.31,2.39,1.47c0.3,0.34,0.42,0.47,0.47,0.45c0.12-0.05-0.16-0.99,0.76-2.09c1.31-1.55-0.35,0.23-1.44-0.86
		c-1.08-1.08-1.23-0.69-1.67-0.37c-0.46,0.3-1.38-1.32-2.24-1.4c-0.87-0.07-1.79-0.77-1.79-2.25c0-1.47,2.06-0.06,3.35,0.17
		c1.3,0.24,0.93-0.22,1.09,0.63c0.14,0.85,0.4,1.23,0.84,0.6c0.43-0.62,1.44-1.08,0.51-1.71c-0.94-0.62-1.44,0-1.38-0.7
		c0.07-0.7,0.36-0.07,1.16-0.15c0.78-0.08,1.64-0.81,2.94,0.75c0.59,0.72,0.03,1.72,0.05,1.82c0.01-0.03,0.05-0.08,0.17-0.09
		c0.5-0.07,0.36-0.76,1.02-0.92c0.64-0.16,1.23,0.16,1.8-0.31c0.58-0.46-0.15-0.54-0.8-0.77c-0.65-0.24-0.79-0.16-1.95-1.55
		c-0.58-0.71-0.63-0.86-0.63-0.86s0.06,0.15-0.31,0.07c-0.72-0.18-1.3-0.86-1.15-1.79c0.15-0.92,1.66-0.3,2.09,0
		c0.43,0.32,0.29,0.16,0.8,0c0.5-0.14,0.5-0.07,1.01,0.39c0.5,0.47,0,0.16,1.23,0.61c1.23,0.47,0.93-0.46,0.72-1.07
		c-0.22-0.62-0.15-0.93,0.5-1.17c0.64-0.23,1.03,0.47,1.39,0.86c0.36,0.37-0.15,0.77,0.15,0.84c0.1-0.01-0.2-0.28,0.51-1.24
		c0.86-1.16,0.43-1.24,0.22-1.78c-0.22-0.54,0.21-1.08,0.5-1.55c0.29-0.46,1.66,0.15,3.61,0.7c1.95,0.53,2.24,2.01,3.24,3.26
		c1.02,1.24,0.89,0.77,0.89,0.46c0-0.32-0.65-0.46,0.29-1.17c0.93-0.69,0.87-1.39,0.87-2.02c0-0.61,0.65-0.37,1.37-0.22
		c0.52,0.11,0.7-0.07,1.02-0.23c-0.29-0.32-0.45-0.77-0.36-1.31c0.15-0.92,1.66-0.31,2.09,0c0.44,0.31,0.29,0.17,0.79,0
		c0.51-0.16,0.51-0.07,1.01,0.39c0.51,0.45,0,0.15,1.23,0.61c1.23,0.47,0.94-0.46,0.73-1.07c-0.22-0.62-0.15-0.93,0.5-1.16
		c0.64-0.23,1.03,0.46,1.39,0.84c0.36,0.39-0.15,0.78,0.22,0.88c0.02-0.04-0.29-0.31,0.43-1.26c0.86-1.16,0.42-1.25,0.21-1.79
		c-0.21-0.54,0.21-1.08,0.51-1.55c0.29-0.47,1.67,0.15,3.61,0.69c1.95,0.55,2.24,2.02,3.24,3.25c1.02,1.24,0.89,0.78,0.89,0.47
		c0-0.31-0.66-0.47,0.29-1.16c0.26-0.2,0.45-0.38,0.57-0.58c-0.62-0.75-0.67-0.9-0.67-0.9c0.01,0,0.05,0.14-0.31,0.05
		c-0.72-0.17-1.3-0.84-1.15-1.77c0.14-0.93,1.66-0.31,2.09,0c0.44,0.31,0.3,0.15,0.8,0c0.5-0.16,0.5-0.07,1.01,0.37
		c0.42,0.39,0.15,0.25,0.74,0.45c0.16-0.09,0.34-0.19,0.61-0.26c0.43-0.1,0.32,0.13,0.09,0.51c0.99,0.28,0.72-0.57,0.51-1.15
		c-0.22-0.63-0.15-0.94,0.5-1.16c0.65-0.24,1.03,0.46,1.4,0.85c0.36,0.39-0.15,0.76,0.14,0.85c0.1-0.01-0.2-0.29,0.51-1.24
		c0.86-1.16,0.44-1.25,0.22-1.79c-0.22-0.53,0.22-1.08,0.5-1.54c0.29-0.47,1.66,0.14,3.61,0.7c1.95,0.54,2.23,2.01,3.25,3.25
		c1.01,1.24,0.88,0.77,0.88,0.47c0-0.31-0.65-0.47,0.29-1.16c0.93-0.7-0.38-1.29-0.38-1.92c0-0.61,0.93,0.08,1.66,0.22
		c0.72,0.16,0.61-0.28,1.27-0.44c0.65-0.16,0.43,0.1,0.07,0.8c-0.36,0.7,1.01,0.61,1.52,0.07c0.5-0.54,0.23,0.48,0.58,0.72
		c0.36,0.22,0.72-0.25,2.09-0.09c1.37,0.15,1.19,1.1,0.54,1.18c-0.64,0.08-0.42-0.39-0.64,0.69c-0.21,1.1,0,0.32,0.73,0.32
		c0.72,0,0.64-0.08,1.18-0.77c0.52-0.7,0.93-0.16,1.58-0.24c0.65-0.08,0.87,0.15,1.01,0.85c0.15,0.7-0.75,0.74-1.32,0.66
		c-0.59-0.07-0.41-0.12-0.63,0.9c-0.22,1.03,0.08,0.32,1.3,0.08c1.23-0.24,0.21-0.38,0.86-0.65c0.65-0.25,0.94,0.57,0.94,1.66
		c0,1.09,0.58,0.93,0.79,1c0.22,0.09,0.79,0.86,0.79,1.86c0,1.02,0.29,0.47,1.38-0.15c1.08-0.62,1.91,1.45,2.26,2.23
		c0.37,0.77-0.53,0.48-0.31,2.18c0.21,1.7-1.6,0.79,1,0.23c2.62-0.56,1.86,1.19,1.5,1.97c-0.36,0.77-2.25,0-1.28,1.04
		c0.79,0.84,1.9,0.31,1.63,0.78c-0.39,0.67-0.66,0.65-0.88,1.11c-0.22,0.47-0.41,0.57-0.2,1.33c0.22,0.77-1.74-0.42-2.25-0.34
		c-0.5,0.07,1.38,2.19,0.4,1.95c-1.78-0.45-0.2,0.84-1,1.92c-0.79,1.1-1.88-0.37-2.6-0.61c-0.73-0.22-0.64-1-0.86-2.4
		c-0.21-1.39-0.21-0.85-0.36-0.07c-0.14,0.77-0.96,1.57-0.86-0.31c0.04-0.93-0.87-0.23-1.23-0.23c-0.36,0-1.52,1-1.3,2.16
		c0.21,1.17,0.29-0.15,0.72-0.85c0.43-0.71,0.5,0.08,1.08,0.47c0.58,0.38,0.29,0.23,0.43,0.93c0.15,0.7-0.02-0.02,0.78,0.6
		c0.79,0.62,1.73,0.08,2.81,0.08c1.08,0,0.51,0-0.08,1.18c-0.15,0.32-0.71,0.03-1.2-0.24c-0.67-0.37-0.16,0.19-0.01,0.7
		c0.21,0.86,0.28,0.86-1.88,0.39c-2.16-0.46-0.69-0.47-1.48-0.56c-0.79-0.07-0.06,0.87-0.85,1.34c-0.8,0.46,0.18-2.59-0.91-1.81
		c-1.11,0.78-0.38,0.15-0.46-0.57c-0.08-0.72-0.21-0.16-0.58,0.16C110.43,137.04,109.95,135.52,109.7,135.41z M108.6,135.18
		c0.09-0.07,0.17-0.16,0.23-0.23c-0.02-0.09-0.1-0.06-0.18,0.1L108.6,135.18z M82.41,134.89c0.21-0.44-1.83,0.08-2.38-0.48
		c-0.81-0.85-1.07-0.66-2.29-0.52C77.41,139.07,77.35,135.31,82.41,134.89z M110.06,133.79l0.07,0.18L110.06,133.79z M197.89,143.23
		c0.4,0.64-2.84,0.76-2.84,0.76s0.82-1.62,0.82-2.26c0-0.63,0.4-1.06,0.4-1.06L197.89,143.23z M196.27,138.16c0,0-0.6-2.13-0.2-3.25
		c0.4-1.12,0.81,2.82,1.42,2.18l1.98-0.65l-1.78,1.87L196.27,138.16z M191.16,131.57l-0.29,1.88c-0.61,0.92-0.61,1.11-0.04,1.73
		c1.96,2.13-3.65-2.24-3.65-2.24l2.47,0.34C189.17,132.47,190.89,131.69,191.16,131.57z M187.86,127.66
		c-1.42,0.42-1.21,1.39-1.61,2.09c-0.41,0.69-1.22,0.81-1.62,0c-0.41-0.8-0.82-1.45,0.2-2.29c1.01-0.87,2.37-0.22,2.37-0.22
		L187.86,127.66z M142.03,132.76c0.23,0.52,0.12,0.81-0.15,1.32c-0.23,0.4-0.39,0.67-0.58,1.03c-0.06,0.1-0.1,0.2-0.13,0.28
		c0.04-0.21,0.1-0.46,0.24-0.7c0.43-0.78,0.36-0.31,0.36-0.87c0-0.54-0.28-0.62-1.58-1.48c-1.3-0.85,0.92-0.38,1.36-0.85
		c0.1-0.11,0.19-0.17,0.3-0.21C141.52,131.62,141.82,132.3,142.03,132.76z M179.68,138.78c0.43,0.06,0.95,0.31,1.28,0.64
		c0.24,0.22,0.62,0.31,1.08,0.41c-0.22,0.11-0.48,0.28-0.79,0.46c-1.72,1.1-0.28,0.16-0.95-0.54
		C180.02,139.44,179.81,139.08,179.68,138.78z M182.07,142.03l-0.07,1.6c-0.59-0.4-1.18-0.86-1.39-1.24l-0.1-0.17
		c-0.07,0.17-0.29,0.42-0.98,0.09c-0.11-0.05-0.25-0.14-0.4-0.24l0.18-0.04C180.45,141.88,179.95,142.01,182.07,142.03z
		 M178.61,121.47c0.12,0.18,0.25,0.4,0.37,0.62c0.35,0.71-0.07,1.72-0.07,1.72s0.13-0.38-0.58-0.85c-0.7-0.46-0.38-0.25-0.83-0.74
		c0.43-0.54,0.51-0.69,0.51-0.71c0,0-0.04,0.15,0.31,0.06C178.43,121.54,178.52,121.51,178.61,121.47z M175.67,123.86
		c-0.04,0.23-0.08,0.53,0.01,0.98c-0.32,0.16-0.67,0.16-1.02-0.12c-0.58-0.46,0.15-0.54,0.79-0.78L175.67,123.86z M164.2,139.42
		c0.39,0.43,1.42,3.83,1.87,4.46c0.7,0.96,2.33-0.96,2.95-1.41c-0.16,1-1.17,1.48-1.46,1.91l0.15,1.48
		c-0.4-0.07-1.92-3.19-2.36-3.19c-1.08,0,0.3,1.82,0.88,3.01c0.16,0.32,0.17,0.55,0.14,0.68c-0.11,0.31-0.45-0.03-0.59-0.03
		c-0.37,0-1.42-2.81-1.5-3.59C164.23,142.12,164.48,140.53,164.2,139.42z M169.12,144.13c0.4-0.34,0.39-1.08,0.57-2.26
		c0.05-0.34,0.09-0.57,0.12-0.71c0.14,0.05,0.17,0.34,0.23,0.63c0.14,0.78,0.14,0.31,0.86-0.31c0.71-0.63,0.86-0.24,1.21-0.24
		c0.16,0,0.45,0.19,0.72,0.47l-0.33,0.61c-0.27-0.21-0.4,0.39-0.89,0.72c-0.34,0.23,0.4,2.31,0.39,2.44
		c-0.91,0.64-1.19-1.17-2.12-0.7c-0.93,0.47-1.22,1.48-0.86-0.24L169.12,144.13z M172.9,141.77c0.35,0.4,0.65,1.01,0.53,1.66
		c-0.21,1.17-0.29-0.16-0.71-0.87c-0.06-0.08-0.1-0.14-0.14-0.18L172.9,141.77z M183.98,140.35c0.37,0.15,0.76,0.35,1.17,0.62
		c1.94,1.33,0.72-1.25,1.31-2.73c0.07-0.17,0.12-0.31,0.18-0.42c0.14-0.08,0.25-0.2,0.34-0.34c0.28,0.06,0.66,0.87,1.69,2.23
		c1.64,2.18-0.15,0.86-0.94,0.39c-0.79-0.47-1.01,2.11-2.59,2.89c-1.58,0.78-1.65-0.55,0.35,2.41c2.01,2.96,1.01,0.65,4.53-0.78
		c1.26-0.5,2.74-0.81,3.22-0.91c0.83,0.73-0.06,1.13-0.17,1.21c-0.26,0.72-1.78,1.77-2.23,2.49c-0.13,0.01-0.24,0.02-0.41,0.21
		c-0.41,0.45-0.41-3.3-0.71-3.45c-0.3-0.15,0.45,3.43,0.31,3.52c-0.78,0.54-0.31,0.79-1.24,1.25c-0.94,0.47-1.22,1.48-0.86-0.23
		c0.36-1.72,2.02-4.57,2.02-4.57s-1.47,0.13-2.35,3.11c-0.69,2.35-0.25,1.93-0.61,2.46c-0.36,0.54-1.78,1.52-2.13,1.52
		c-0.37,0,0.19-0.49,0.11-1.28c-0.07-0.77,0.03-2.08-0.61-3.59c-0.62-1.41-0.69-1.47-1.27-1.96c0.13-0.59,0.27-1.18,0.45-1.73
		c0.1-0.3,0.16-0.58,0.18-0.84C184.52,141.54,184.29,140.86,183.98,140.35z M183.39,141.95c-0.12,0.75-0.3,1.64-0.48,2.32
		l-0.79-0.56c-0.01-0.53,0.02-1.04,0.07-1.26c0.02-0.11,0.05-0.26,0.07-0.43h0.31C182.89,142.03,183.17,142.01,183.39,141.95z
		 M201.02,138.84c-1.07-1.02,1.44-0.71,2.45-0.47c1.01,0.22,0.5,1.01,0.5,2.02c0,0.63-0.28,0.37-0.79,0.18
		C202.97,140.02,201.63,139.42,201.02,138.84z M183.12,144.43l-0.08,0.31l-0.19-0.25l0.05-0.21L183.12,144.43z M183.04,144.73
		c0.47,0.77,0.9,2.95,1.03,3.6c0.14,0.71-0.22,2.65-0.22,2.65s-0.35-1.25-0.93-2.49c-0.58-1.25-0.64-0.61-0.21-1.48
		C182.92,146.55,182.88,145.44,183.04,144.73z M182.86,144.48c-0.1,0.32-0.2,0.57-0.29,0.71c-0.28,0.39-0.42-0.46-0.45-1.34
		C182.38,144.05,182.62,144.25,182.86,144.48z M177.54,143.51c1.59,0,1.12-0.74,1.27-1.18l2.37,0.99c0.25,0.1,0.53,0.26,0.82,0.44
		c-0.05,1.28-0.09,2.46-0.09,2.7c0,0.55,0.14,1.17-0.51,0.47c-0.65-0.71-1.51-1.97-1.94-2.21
		C179.04,144.49,178,144.04,177.54,143.51z M152.67,119.44l-0.7-3.12c0,0,1.21,1.33,1.41,1.97c0.09,0.31,0.24,0.84,0.36,1.31
		C153.39,119.18,153.07,119.36,152.67,119.44z M137.98,119.66l0.62,2.07l-1.77-0.22L137.98,119.66z M133.18,128.55l1.01-2.39
		l2.84,0.9c0,0,1.01,1.49,0,1.29c-1.01-0.21-1.21-0.43-1.82-0.21C134.59,128.35,133.18,128.55,133.18,128.55z M176.37,131.63
		l0.34,1.41c-1.98,1.11-1.45,4.37-1.45,4.37l-1.32-3.86l1.22-0.97c0.09-0.3,0.28-0.57,0.6-0.74L176.37,131.63z M147.29,125.81
		c-0.32-0.65-0.48-1.22,0.38-1.94c0.9-0.77,3.76-0.5,4.01-0.4c-0.17,0.39-2.09,0.74-2.38,0.53c-0.19-0.13-0.79,0.85-0.79,1.87
		C148.51,126.85,148.26,126.39,147.29,125.81z M166.93,125.58c-0.49-0.06-0.88,0.15-1.36,0.61c-0.4,0.03-0.79,0.09-1.17,0.05
		c-0.17-0.03-0.33-0.08-0.46-0.13c-0.1-0.2-0.24-0.42-0.42-0.64l-0.17-0.19c0.02-0.12,0.05-0.25,0.1-0.38
		c0.4,0.11,1.01,0.22,1.51-0.28c1.08-1.09,1.23-0.71,1.68-0.39c0.09,0.06,0.19,0.04,0.29-0.02c0.34,0.38,0.51,0.83,0.59,1.18
		c-0.36,0.07-0.59,0.14-0.59,0.14L166.93,125.58z M158.32,136.2c0.64-0.2,0.8-0.4,0.87-0.57c0.43,0.07,0.63,0.09,0.76,0.09
		c-0.03,0.24-0.13,0.61-0.31,1.22c-0.04,0.16-0.08,0.31-0.09,0.44C159.13,137.01,158.69,136.58,158.32,136.2z M150.18,133.12
		c-0.01-0.39-0.99-2.02-0.97-2.49l3.1-1.23c0,0,0.53,2.08,0.66,2.42c-0.15,0.09-2,1.21-2.13,1.46
		C150.57,133.22,150.36,133.17,150.18,133.12z M165.94,133.64c0.07,0.47,1.03,4.82,1.03,4.82s0.12-1.02,0.12-1.72l0.03-0.35
		l3.56-2.8l-3.41,4.23c-0.52-0.16-1.07-0.8-1.67-1.13C166.01,136.6,165.56,133.71,165.94,133.64z M148.55,139.52
		c-0.03-0.61-0.13-1.31-0.47-2.08c0-0.43,0.04-0.8,0.11-1.25c0.21-1.41,0.21-0.85,0.36-0.08c0.13,0.75,0.14,0.35,0.78-0.24l0.2,0.29
		c0.33,0.48,0.57,0.83,0.78,1.06c-0.05,0.04-0.11,0.09-0.18,0.13c-0.57,0.39-0.29,0.23-0.43,0.94
		C149.59,138.83,149.12,139.14,148.55,139.52z M150.51,141.4c-0.43,0.79-0.96,1.72-1.2,1.72c-0.22,0-0.43-0.55-0.56-1.15
		c1.59-0.39,0.72-0.46,1.45-0.53L150.51,141.4z M152.72,139.76c-0.85,0.47-1.11,1.35-0.75-0.3l0.12-0.64
		C152.16,138.78,152.24,139.3,152.72,139.76z M158,136.43l-0.71,1.3c-0.07-0.4-0.44-0.55-1.57-1.3c0.95-0.47,1.44-0.81,1.65-1.06
		c0.06-0.03,0.13-0.04,0.2-0.04c0.23,0.22,0.37,0.4,0.44,0.54l-0.5-0.53C157.52,135.34,157.71,135.85,158,136.43z M147.02,140.85
		L147.02,140.85z M142.23,135.69c0.33,0.05,0.69,0.13,1,0.24c0.06,0.16-0.02,0.27-0.12,0.42c-0.29,0.39-0.93,0.79-1.15,1.56
		c-0.22,0.77,0.07,0.63,0.57,0.71c0.51,0.09-0.61-1.4,0.39-1.4c1,0,1.39,1.09,2.18,2.18c0.38,0.53,0.75,0.42,1.11,0.13l0.3,0.33
		c0.13,0.14,0.24,0.26,0.31,0.37c-0.5-0.04-1.05-0.21-1.65-0.21c-1.07,0-0.5,0,0.08,1.18c0.16,0.32,0.18,0.54,0.16,0.67
		c0.11-0.12,0.36-0.32,0.85-0.59c0.4-0.21,0.65-0.36,0.77-0.44c-0.17,0.15-0.47,0.46-0.55,0.83c-0.17,0.65-0.24,0.81,0.69,0.64
		c0.02,1.19,0.1,3.57,0.1,4.37c0,1.03-0.16,3.97-0.38,5.04c-0.21,1.08-0.08,1.32-0.66,2.78c-0.6,1.47,0.06,1.11,0.69,0.76
		c0.27-0.15,0.39-0.29,0.51-0.28c0.13,0.02,0.25,0.28,0.6,1.01c0.65,1.33,0.79,0.49,1.3-0.31c0.5-0.8,0.22-0.63,0.64-0.39
		c0.3,0.17,0.47,0,0.78,0.08c0.08,0.13,1.67,1.09,0.02-1.24c-0.66-0.94-0.65-1.79-0.72-5.31c-0.07-2.93,0.15-2.01-0.08-4.07
		c-0.19-1.85,0.84-2.21,1.42-3.01c0.51,0.3,0.36,0.11,0.34-0.59c0.3-0.5,0.26,0.02,1.26-0.86l0.23-0.2c0.75,0.54,0.3,0.28,0.82,1
		c0.58,0.8,1.99,0.54,2.06-0.18c0.07-0.72,0.22-0.15,0.57,0.16c0.36,0.32,0.08-0.62-0.06-1.08c-0.03-0.11,0.01-0.17,0.08-0.22
		c0,0.28,0.06,0.46,0.06,0.46l0.4-0.53c-0.2,0-0.37,0.02-0.47,0.07c0-0.27,0.06-0.63,0.28-1.02c0.44-0.79,0.71-0.21,0.71-0.76
		c0.31-0.67,0.24-1.34,0.35-1.58c0.32,0.61,0.76,1.28,1.24,1.47l0.34,0.14c0.15,0.67,0.7,0.96,1,1.18c0.23,0.17,0.33,0.35,0.7,0.5
		c-0.66,1.29,0.49,0.82,0.98,0.58c0.23-0.1,0.4-0.28,0.53-0.38l0.26,0.01l-0.04,1.14c-0.25,0.31-0.72,0.62-0.98,1.18
		c-0.55-0.68-1.16-1.51-1.49-1.69c-0.43-0.23-1.52-0.7-1.94-1.26c-0.44-0.53-2.73-1.3-2.73-1.3l1,1.54l0.29,0.18
		c0.45,0.01,1.07,0.13,1.57,0.3c0.58,0.19,1.94,1.65,3.1,2.97c0.01,0.16,0.08,0.22,0.21,0.24c0.66,0.75,1.23,1.42,1.52,1.72
		c0.82,0.86,0.37,0.86,0.58,1.72c0.22,0.85,0.02,3.95,0.02,4.95c0,1.01-0.23,3.09-0.46,4.16c-0.21,1.07,0.15,2.36-0.44,3.84
		c-0.59,1.47,0.06,1.1,0.69,0.75c0.28-0.16,0.4-0.29,0.51-0.29c0.14,0.03,0.25,0.28,0.62,1.02c0.64,1.32,0.78,0.48,1.28-0.32
		c0.5-0.8,0.22-0.63,0.65-0.39c0.3,0.16,1.05,0.39,1.37,0.48c0.08,0.11,1.06,0.69-0.59-1.65c-0.65-0.92-0.65-2.26-0.72-5.77
		c-0.06-2.94,0.15-1.55-0.07-3.6c-0.16-1.4,0.4-1.95,0.93-2.47c-0.21,0.81-0.2-0.94,1.91-1.4c2.15-0.47,1.04,1.19,1.83,1.11
		c0.79-0.07,0.36-0.16,1.15,0.31c0.79,0.47,0.07-0.15,0.5-1.97c0.44-1.8,0-0.61,1.11,0.17c1.1,0.78,0.5,0.38,1.07,1.19
		c0.58,0.79,0.43-0.47,0.51-1.19c0.06-0.73-0.83-0.66-0.47-0.35c0.36,0.31,0.08-0.62-0.07-1.09c-0.03-0.1,0.01-0.18,0.09-0.22
		c0,0.28,0.05,0.46,0.05,0.46l0.42-0.52c-0.21,0-0.37,0.02-0.47,0.07c0-0.18,0.03-0.42,0.11-0.67l0.21,0.07l-0.12,0.36l0.29,0.18
		c0.45,0,1.07,0.11,1.58,0.29c0.93,0.32,3.56,4.15,4.37,5.01c0.81,0.85,0.46,0.72,0.68,1.58c0.21,0.86-0.06,2.65-0.06,3.67
		c0,1.01,0.21,5-0.01,6.07c-0.22,1.07-0.55,2.05-1.14,3.53c-0.59,1.47-0.33,1.42,0.3,1.06c0.28-0.15,0.39-0.29,0.5-0.27
		c0.13,0.01,0.24,0.25,0.61,1c0.65,1.33,0.79,0.49,1.3-0.31c0.5-0.79,0.22-0.61,0.65-0.38c0.27,0.13,0.7,0.25,0.88,0.28
		c0.32,0.21,1.47,0.75-0.09-1.46c-0.66-0.93-0.07-1.19-0.15-4.7c-0.05-2.94,0.15-4.17-0.07-6.22c-0.22-2.05,1.6-1.27,2.1-2.28
		c0.5-1.02,0.29-0.16,1.44-1.18c1.16-1.01,1.08-1.01,1.72-1.71c0.06-0.06,0.15-0.18,0.23-0.32c0.23-0.01,1.64-1.38,1.64-1.38
		l1.08-1.16c0,0,1.38-1.05,0.94,0.43c-0.43,1.48,1.05,2.24,1.47,2.56c0.44,0.31-0.45-1.4,1.64-1.4c2.09,0,0.29,1.54,1.52,1.38
		c1.22-0.16-1.55,0.13,1.12,0.13c2.69,0,3.18-1.77,2.82-2.31c-0.36-0.55,0.84-1.43-0.89-0.34c-1.72,1.1,0.71-0.66,0.05-1.37
		c-0.67-0.7-2.47-1.27-2.47-1.27s1.05-1.02,1.26-1.1c0.09-0.04,0.59-0.05,1.11-0.08c0.25,0.16,0.51,0.32,0.71,0.47
		c0.72,0.54-0.33,0.16,1.39,0.71c1.72,0.53,1.27-0.83,1.55-2c0.3-1.17,2.03-0.58,1.16-1.35c-0.86-0.78-4.1-2.93-2.09-2.31
		c2.01,0.62,1.73,0.04,1.87-0.98c0.15-1.01,2.47-0.83,1.54-1.81c-1.09-1.16-1.19-0.34-1.62-0.34c-0.44,0-0.7,1.18-1.34,0.71
		c-0.64-0.46-0.67-1.28-1.53-1.51c-0.87-0.23-1.48,0.73-2.49,1.9c-0.3,0.34-0.41,0.48-0.46,0.46c-0.12-0.05,0.15-1-0.76-2.1
		c-1.3-1.56,0.35,0.23,1.43-0.86c1.08-1.09,1.23-0.7,1.68-0.39c0.44,0.31,1.13-0.6,2-0.67c0.86-0.07,0.73-1.13,0.73-2.61
		c0-1.48-0.47,0.2-1.76,0.48c-1.71,0.37-1.42,0.94-1.86,0.32c-0.43-0.62-1.27-0.65-0.34-1.28c0.93-0.62,1.27-0.44,1.2-1.14
		c-0.07-0.71-0.36-0.07-1.14-0.16c-0.79-0.08-2.41,0.86-3.72,2.42c-0.59,0.72-0.73,1.01-0.75,1.1c-0.01-0.04-0.05-0.08-0.18-0.09
		c-0.5-0.07-0.36-0.78-1.01-0.94c-0.64-0.16-1.21,0.16-1.8-0.31c-0.57-0.47,0.15-0.55,0.79-0.79c0.64-0.22,0.79-0.15,1.94-1.55
		c0.58-0.72,0.63-0.87,0.63-0.87s-0.05,0.15,0.31,0.06c0.72-0.18,1.21-0.85,1.15-1.8c-0.1-1.46-1.56-0.4-1.79,0.07
		c-0.52,1.03-0.78-0.07-1.29-0.22c-0.5-0.16-0.35,0.33-0.85,0.8c-0.5,0.46,0.05-0.1-1.18,0.36c-1.21,0.47-0.93-0.46-0.71-1.08
		c0.22-0.62,0.15-0.93-0.5-1.17c-0.65-0.23-1.02,0.46-1.39,0.85c-0.35,0.39,0.15,0.79-0.14,0.87c-0.1-0.02,0.2-0.3-0.5-1.26
		c-0.86-1.16-0.43-1.24-0.21-1.8c0.21-0.54-0.22-1.08-0.5-1.56c-0.29-0.46-1.66,0.16-3.59,0.71c-1.94,0.55-2.23,2.02-3.24,3.28
		c-1.01,1.25-0.88,0.78-0.88,0.47c0-0.32,0.64-0.47-0.29-1.17c-0.93-0.7-0.87-1.4-0.87-2.02c0-0.63-0.64-0.39-1.36-0.24
		c-0.51,0.11-0.71-0.06-1.01-0.23c0.29-0.32,0.43-0.77,0.35-1.31c-0.15-0.93-1.65-0.32-2.08,0c-0.43,0.31-0.29,0.16-0.79,0
		c-0.5-0.16-0.5-0.09-1,0.39c-0.51,0.46,0,0.16-1.23,0.62c-1.21,0.47-0.93-0.46-0.71-1.1c0.21-0.62,0.13-0.93-0.5-1.17
		c-0.65-0.23-1.04,0.46-1.39,0.86c-0.36,0.39,0.13,0.78-0.23,0.88c-0.02-0.04,0.29-0.32-0.43-1.28c-0.86-1.16-0.43-1.24-0.21-1.78
		c0.21-0.56-0.22-1.1-0.5-1.57c-0.29-0.46-1.65,0.16-3.59,0.71c-1.94,0.55-2.23,2.04-3.24,3.28c-1,1.25-0.88,0.78-0.88,0.47
		c0-0.31,0.64-0.47-0.3-1.17c-0.25-0.2-0.43-0.39-0.56-0.59c0.61-0.75,0.67-0.9,0.67-0.9s-0.06,0.14,0.3,0.05
		c0.72-0.18,1.3-0.85,1.15-1.8c-0.15-0.93-1.65-0.32-2.09,0c-0.43,0.32-0.29,0.16-0.79,0c-0.5-0.16-0.5-0.07-1,0.39
		c-0.43,0.39-0.15,0.24-0.73,0.44c-0.17-0.08-0.34-0.19-0.61-0.25c-0.42-0.11-0.32,0.13-0.09,0.5c-0.98,0.29-0.72-0.58-0.51-1.16
		c0.22-0.62,0.14-0.93-0.51-1.17c-0.64-0.23-1.02,0.47-1.38,0.87c-0.36,0.38,0.15,0.77-0.15,0.85c-0.1-0.02,0.2-0.29-0.5-1.25
		c-0.87-1.17-0.44-1.25-0.22-1.8c0.22-0.55-0.21-1.09-0.49-1.56c-0.29-0.47-1.66,0.16-3.6,0.71c-1.93,0.53-2.22,2.02-3.23,3.27
		c-1.01,1.26-0.88,0.78-0.88,0.47c0-0.32,0.64-0.47-0.29-1.17c-0.92-0.7-0.87-1.4-0.87-2.03c0-0.61-0.65-0.38-1.36-0.23
		c-0.72,0.16,0.49,1.12-0.15,0.96c-0.65-0.15-1.36-0.88-1-0.17c0.36,0.7-0.07,1.72-0.07,1.72s0.15-0.39-0.58-0.87
		c-0.72-0.46,0.22-0.09-0.29-0.64c-0.5-0.54-1.61,0.04-1.98,0.28c-0.36,0.23,0.4-0.49-0.97-0.33c-1.36,0.16-0.35,1.01,0.29,1.08
		c0.65,0.08,0.08,0.39,0.29,1.48c0.21,1.1,0,0.31-0.72,0.31c-0.72,0-0.64-0.07-1.17-0.77c-0.52-0.7-0.49,0.27-1.13,0.2
		c-0.65-0.08-0.87,0.16-1.01,0.85c-0.14,0.7,0.5,0.23,1.07,0.16c0.58-0.08,0.21-0.03,0.42,1c0.21,1.04-0.07,0.31-1.29,0.08
		c-1.23-0.23-0.22-0.39-0.86-0.65c-0.65-0.25-0.93,0.57-0.93,1.66c0,1.1-0.58,0.94-0.79,1.02c-0.21,0.07-0.79,0.85-0.79,1.87
		c0,1.01-1.16-1.37-1.35-0.15c-0.52,2.94-2.14,1.55-2.49,2.33c-0.36,0.78,0.64,0.48,0.43,2.2c-0.22,1.72,1.84,1.78-0.77,1.2
		c-2.61-0.57-2.21,1.35-1.84,2.13c0.35,0.78,0.19,0.57-0.46,1.82c-0.65,1.24,0.5,0.77,1,0.54c0.5-0.23,0.72-0.77,0.93-0.31
		c0.22,0.47,0.58,0.46,0.36,1.23c-0.21,0.77-0.85,1.34,0.15,1.34c1.01,0,1.39,1.09,2.17,2.2c0.8,1.08,1.16-0.77,1.87-1.01
		c0.73-0.23,1-0.8,1.22-2.2c0.21-1.4,0.21-0.85,0.36-0.08c0.15,0.77,0.04,1.96,0.76,1.34c0.72-0.63,0.96-1.88,1.32-1.88
		c0.36,0,1.51,1.01,1.29,2.19c-0.22,1.17-0.29-0.16-0.72-0.87c-0.43-0.7-0.5,0.08-1.08,0.47c-0.58,0.39-0.29,0.23-0.43,0.93
		c-0.15,0.71-2.1-0.26-2.23,0.72c-0.13,1.06,0.51,1.05-0.56,1.05c-1.09,0-0.5,0,0.07,1.18c0.16,0.32,0.18,0.54,0.16,0.67
		c0.11-0.12,0.36-0.33,0.84-0.59c0.66-0.36-0.85-0.54-0.85-0.54s1.19,0.4,1.06,0.93c-0.21,0.85-0.29,0.85,1.87,0.39
		c2.15-0.47-0.65-0.58,0.14-0.66c0.79-0.07,0.35-0.16,1.15,0.31c0.79,0.47,0.07-0.15,0.5-1.97c0.44-1.81,0-0.62,1.1,0.16
		c1.1,0.78,0.5,0.39,1.08,1.19c0.57,0.8,0.43-0.46,0.5-1.19c0.07-0.72,0.21-0.16,0.57,0.16c0.37,0.32,0.08-0.62-0.07-1.09
		c-0.02-0.08-0.01-0.15,0.06-0.2c0.06,0.31,0.09,0.44,0.09,0.44l0.18-0.23C141.63,135.94,141.98,135.8,142.23,135.69z M143.3,135.46
		c-0.08-0.07-0.16-0.15-0.23-0.23c0.04-0.09,0.11-0.05,0.18,0.11L143.3,135.46z M143.1,130.4c-0.06-0.13-0.16-0.31-0.13-0.55
		c0.02-0.29,1.83-3.75,2.18-3.71C144.67,127.44,144.25,130.7,143.1,130.4z M141.85,134.05l-0.06,0.19L141.85,134.05z"/>
	<path fill="#002F65" d="M63.91,178.66l56.06-17.77v4.26c0,0-5.33,2.66-5.65,5.21c-0.4,3.1,1.15,4.91,3.96,7.13
		c1.99,1.6,3.05,2.48,3.05,3.19v3.43c0,0-5.11,0.88-4.4,4.8c0.48,2.65,2.7,3.02,4.42,4.96c0.58,0.65,1.59,2.63-0.49,3.17
		c-2.08,0.54-2.67,1.93-2.67,1.93s1.09,2.12,4.07,2.17c-0.15,1.94,0.79,2.8,2.31,3.34c2.55,0.9,3.76-0.62,3.78-2.09
		c0.02-1.16-0.01-2.46,0.71-3.49c0.72-1.03,2.97-2.57,3.02-4.77c0.05-2.45-3.64-3.07-3.5-5.22c0.09-1.7,3.54-2.35,4.54-3.49
		c1.01-1.15,1.3-4.27-0.08-6.08c-1.12-1.48-4.4-4.32-4.4-4.32v-4.19c0,0,2.35-1.77,4.33-3.19c2.22-1.58,2.23-3.96,1.95-5.25
		c3.33,0.99,51.45,16.27,51.45,16.27s-23.01,28.04-61.29,28.04C86.19,206.7,63.91,178.66,63.91,178.66 M120.25,146.28
		c-0.6,0-0.96,0.51-1.33,0.61c0.81,0.39,1.61,0.39,2.42,0C120.97,146.79,120.85,146.28,120.25,146.28 M133.61,163.08
		c-0.19-2.1-1.29-2.8-4.71-5.88c0.05,0.04,4.3-4.14,4.3-5.32c0-0.98-0.27-1.36-1.72-1.36c-1,0-1.99,0.55-3.29,1.37
		c0,0,0.05-0.91,0.25-1.44c0.33-0.81,0.96-1.23,1.7-2.33c-0.5-0.84-1.6-1.1-1.96-2.02c-0.36-0.92-0.03-2.1-0.4-3.06
		c-0.7-1.78-2.98-1.86-3.88-1.86c-1.51,0-1.83,0.09-3.68,1.4c-0.08,0.5-0.1,0.93-0.53,1.35c-1.44,1.5-3.8,0.91-5.37,3.3
		c-0.55,0.86-0.94,2.69-0.94,3.32c0,4.97,7.97,7.57,7.98,11.1v4.07c-1.39,1.45-5.81,2.91-5.81,5.77c0,4.04,6.77,5.87,6.79,9.27v4.05
		c-1.8,1.25-4.41,0.8-4.13,3.75c0.33,3.33,5.04,2.79,5.09,7.51c0.02,2.45-1.55,1.39-3.4,2.79c1.16,1.18,2.74,1.18,3.44,1.13
		c0.16,2.33,0.08,3.04,1.99,3.7c0.08,0.02,1.52,0.2,1.73-0.72c0.27-1.21-0.19-2.68,0.39-3.79c1.54-3.02,3.34-2.89,3.34-4.9
		c0-2.96-3.39-2.29-3.39-5.48c0-3.37,5.33-1.97,5.33-6.11c0-3.32-1.73-3.21-5.33-7.05v-5.27
		C127.39,167.96,134.06,168.12,133.61,163.08z M132,151.78c-0.97,1.67-2.47,3.13-4.01,4.69c-0.48-0.37-3.27-2.35-3.27-3.18
		c0-0.63,0.24-1.02,0.27-1.87c0.33-0.04,0.85-0.3,1.93-0.53c0.04,0.87-0.03,2.15-0.05,3.1c0,0-0.22,0.2,0.38,0.2
		C127.72,154.18,129.33,152.13,132,151.78z M124.76,142.74h1.03c0.61-0.02,0.85,0.53,1.32,1.07v1.68c-0.85-0.23-1.58-0.49-2.36-0.79
		V142.74z M126.16,202.26c0,0,0.02,0.31-0.59,0.31c-0.6,0-1.06-0.44-1.31-1.22v-7.15c1.98,0.03,2.15,2.86,2.15,3.67
		C126.42,198.49,126.18,200.67,126.16,202.26z M129.54,194.46c-0.06,1.28-1.01,1.4-2.32,2.51c0.01-0.76,0.07-1.42-0.16-2.35
		c-2.2-1.78-7.19-3.71-7.64-6.26c-0.2-1.17,1.49-1.66,2.65-1.98c0.69,1.69,1.24,2.64,2.84,3.65
		C125.71,190.52,129.62,192.89,129.54,194.46z M124.52,188.24v-7.03c0.88,0.51,1.9,1.53,1.88,2.18v6.19
		C125.76,189.31,125,188.79,124.52,188.24z M131.57,182.41c0,1.88-2.74,2.9-4.15,3.6c0,0-0.01-2.62-0.01-2.97
		c0-3.46-10.52-7.36-10.65-11.66c-0.04-1.43,3.27-3.19,4.54-3.83c0.07,1.39,0.12,3.48,1.05,4.78
		C125.31,176.46,131.57,179.59,131.57,182.41z M124.76,172.43v-10.08c0.63,0.25,1.39,0.78,1.86,1.33v11.37
		C125.98,174.66,124.73,173.22,124.76,172.43z M114.54,150.62c0-3.83,3.92-5.35,6.19-5.35c1.88,0,6.03,1.1,7.94,2.87
		c-1.21,1.59-3.73,2.48-5.52,2.48c-0.61,0-1.72-0.26-2.87-0.51l-0.4,0.41c1.62,3.47,12.59,8.98,12.59,13.22
		c0,2.04-3.69,3.45-4.54,3.93c-0.06-0.62,0.37-1.46-0.3-4.15C126.87,160.46,114.54,154.91,114.54,150.62z M127.89,141.19
		c-1-0.91-3.34-1.26-4.62-1.05c-0.5,0.08-0.86-0.06-2.94,1.08c0.04-2.89,1.65-6.16,3.95-7.5
		C126.48,134.86,127.67,138.12,127.89,141.19z M124.23,135.18c-1.94,0.78-2.59,3.09-2.73,4.19l-0.04,0.29
		c1.03-0.33,1.41-0.59,2.76-0.73V135.18z"/>
	<path fill-rule="evenodd" clip-rule="evenodd" fill="#002F65" d="M20.57,138.82l5.38-0.76c0.24,1.61,0.51,2.36,1.03,3.41
		l-0.35,0.01C24.48,141.52,21.41,140.27,20.57,138.82 M19.34,138.98c1.03-2.72,5.32-5.27,7.48-5.57c-0.44,3.69-0.24,5,1.31,8.91
		C25.86,142.65,21.33,141.4,19.34,138.98"/>
	<path fill-rule="evenodd" clip-rule="evenodd" fill="#002F65" d="M229.69,138.94l-5.26-0.89c-0.32,1.56-0.63,2.25-1.19,3.29
		l0.36,0.02C225.42,141.5,228.81,140.35,229.69,138.94 M230.93,139.09c-0.93-2.75-5.15-5.39-7.3-5.77c0.31,3.71,0.07,5.01-1.62,8.86
		C224.27,142.58,228.86,141.44,230.93,139.09"/>
	<path fill="none" stroke="#002F65" stroke-width="1.3238" stroke-miterlimit="3.864" d="M0.71,125.05
		C0.71,56.38,56.37,0.71,125.05,0.71c68.67,0,124.34,55.67,124.34,124.34c0,68.66-55.67,124.33-124.34,124.33
		C56.37,249.38,0.71,193.71,0.71,125.05z M124.98,209.25c46.52,0,84.22-37.69,84.22-84.21c0-46.51-37.7-84.21-84.22-84.21
		c-46.51,0-84.21,37.7-84.21,84.21C40.77,171.55,78.47,209.25,124.98,209.25z M129.4,148.17l71.16,12.86 M48.68,161.16l65.61-12.28"
		/>
</g>
</svg>
